<svg width="19" height="18" viewBox="0 0 19 18" fill="none"
    xmlns="http://www.w3.org/2000/svg">
    <path fill-rule="evenodd" clip-rule="evenodd" d="M1.70367 1.70336C1.64483 1.76686 1.60724 1.86918 1.66935 2.01195C2.49718 3.91483 3.44759 5.74735 3.91707 6.6274C4.00533 6.79322 4.15651 6.92103 4.34365 6.98412L8.0464 8.23464C8.2077 8.28921 8.34771 8.39234 8.44685 8.52959C8.54599 8.66683 8.59929 8.83133 8.59929 9.00004C8.59929 9.16876 8.54599 9.33326 8.44685 9.4705C8.34771 9.60775 8.2077 9.71088 8.0464 9.76545L4.34365 11.016C4.16067 11.0766 4.00805 11.2042 3.91707 11.3727C3.44759 12.2527 2.49718 14.0853 1.66935 15.9877C1.60724 16.1309 1.64483 16.2332 1.70327 16.2971C1.76251 16.361 1.86262 16.4071 2.01053 16.3594C5.25442 15.318 11.5428 13.043 17.0455 9.56687C17.1434 9.50736 17.2243 9.42399 17.2804 9.32472C17.3365 9.22545 17.366 9.1136 17.366 8.99984C17.366 8.88609 17.3365 8.77423 17.2804 8.67496C17.2243 8.57569 17.1434 8.49232 17.0455 8.43282C11.5428 4.95667 5.25442 2.6821 2.01013 1.64027C1.86221 1.59295 1.7621 1.63905 1.70286 1.70296M0.167739 2.65177C0.0154908 2.31746 -0.0346227 1.94636 0.023573 1.58421C0.0817686 1.22205 0.245731 0.884658 0.495257 0.613599C0.744784 0.342539 1.06897 0.149655 1.42788 0.0587125C1.78679 -0.0322303 2.16474 -0.0172588 2.51516 0.101782C5.80726 1.15899 12.2489 3.4837 17.9244 7.06946C19.3585 7.9754 19.3585 10.0247 17.9244 10.9306C12.2489 14.5164 5.80726 16.8411 2.51516 17.8983C2.16472 18.0173 1.78676 18.0322 1.42786 17.9412C1.06896 17.8502 0.744796 17.6573 0.495311 17.3862C0.245826 17.1151 0.081919 16.7776 0.0237864 16.4155C-0.0343463 16.0533 0.0158351 15.6822 0.168147 15.3479C1.02049 13.3884 1.99378 11.513 2.47185 10.6172C2.75756 10.0838 3.23848 9.67864 3.81615 9.48477L5.25116 8.99944L3.81533 8.51492C3.23767 8.32104 2.75674 7.91591 2.47103 7.38249C1.9946 6.48666 1.02131 4.61128 0.168556 2.65177" fill="currentColor"/>
</svg>
