<svg width="30" height="21" viewBox="0 0 30 21" fill="none"
    xmlns="http://www.w3.org/2000/svg">
    <path d="M28.8896 7.90417C28.8021 7.84583 28.0729 7.27708 26.4979 7.27708C26.0896 7.27708 25.6812 7.32083 25.2729 7.39375C24.9667 5.35208 23.2604 4.31667 23.1875 4.27292L22.7646 4.025L22.5021 4.41875C22.1521 4.94375 21.875 5.54167 21.7583 6.15417C21.4667 7.32083 21.6417 8.42917 22.2396 9.37708C21.525 9.78542 20.3583 9.8875 20.1104 9.8875H0.904166C0.408333 9.8875 0 10.2958 0 10.8063C0 12.4833 0.2625 14.1604 0.845833 15.7354C1.50208 17.4708 2.49375 18.7542 3.7625 19.5417C5.19167 20.4167 7.53958 20.9125 10.2083 20.9125C11.3604 20.9125 12.5562 20.8104 13.7375 20.5917C15.3708 20.3 16.9458 19.7313 18.3896 18.9C19.5853 18.2163 20.6555 17.3334 21.5542 16.2896C23.0854 14.5833 23.9896 12.6438 24.6458 10.9667H24.9229C26.5854 10.9667 27.6208 10.2958 28.1896 9.72708C28.5687 9.37708 28.8458 8.95417 29.05 8.45833L29.1667 8.10833L28.8896 7.90417ZM2.69792 9.34792H5.26458C5.38125 9.34792 5.49792 9.24583 5.49792 9.11458V6.81042C5.49792 6.69375 5.39583 6.57708 5.26458 6.57708H2.69792C2.56667 6.57708 2.46458 6.67917 2.46458 6.81042V9.11458C2.47917 9.24583 2.56667 9.34792 2.69792 9.34792ZM6.24167 9.34792H8.80833C8.925 9.34792 9.04167 9.24583 9.04167 9.11458V6.81042C9.04167 6.69375 8.93958 6.57708 8.80833 6.57708H6.24167C6.11042 6.57708 6.00833 6.67917 6.00833 6.81042V9.11458C6.02292 9.24583 6.11042 9.34792 6.24167 9.34792ZM9.84375 9.34792H12.3958C12.5417 9.34792 12.6437 9.24583 12.6437 9.11458V6.81042C12.6437 6.69375 12.5562 6.57708 12.3958 6.57708H9.84375C9.72708 6.57708 9.625 6.67917 9.625 6.81042V9.11458C9.625 9.24583 9.7125 9.34792 9.84375 9.34792ZM13.4021 9.34792H15.9833C16.1 9.34792 16.2021 9.24583 16.2021 9.11458V6.81042C16.2021 6.69375 16.1146 6.57708 15.9833 6.57708H13.4021C13.2854 6.57708 13.1833 6.67917 13.1833 6.81042V9.11458C13.1833 9.24583 13.2854 9.34792 13.4021 9.34792ZM6.24167 6.08125H8.80833C8.925 6.08125 9.04167 5.95 9.04167 5.81875V3.52917C9.04167 3.39792 8.93958 3.29583 8.80833 3.29583H6.24167C6.11042 3.29583 6.00833 3.38333 6.00833 3.52917V5.81875C6.02292 5.95 6.11042 6.08125 6.24167 6.08125ZM9.84375 6.08125H12.3958C12.5417 6.08125 12.6437 5.95 12.6437 5.81875V3.52917C12.6437 3.39792 12.5562 3.29583 12.3958 3.29583H9.84375C9.72708 3.29583 9.625 3.38333 9.625 3.52917V5.81875C9.625 5.95 9.7125 6.08125 9.84375 6.08125ZM13.4021 6.08125H15.9833C16.1 6.08125 16.2021 5.95 16.2021 5.81875V3.52917C16.2021 3.39792 16.1 3.29583 15.9833 3.29583H13.4021C13.2854 3.29583 13.1833 3.38333 13.1833 3.52917V5.81875C13.1833 5.95 13.2854 6.08125 13.4021 6.08125ZM13.4021 2.75625H15.9833C16.1 2.75625 16.2021 2.65417 16.2021 2.52292V0.247917C16.2021 0.102083 16.1 0 15.9833 0H13.4021C13.2854 0 13.1833 0.0875001 13.1833 0.247917V2.52292C13.1833 2.63958 13.2854 2.75625 13.4021 2.75625ZM16.9896 9.34792H19.5562C19.6875 9.34792 19.7896 9.24583 19.7896 9.11458V6.81042C19.7896 6.69375 19.6875 6.57708 19.5562 6.57708H16.9896C16.8729 6.57708 16.7708 6.67917 16.7708 6.81042V9.11458C16.7708 9.24583 16.8729 9.34792 16.9896 9.34792Z" fill="#0288D1"/>
</svg>
