<svg width="15" height="17" viewBox="0 0 15 17" fill="none" xmlns="http://www.w3.org/2000/svg">
<path d="M2.61592 13.9915C2.35822 13.8183 2.1366 13.5975 1.87718 13.2848C1.74253 13.1187 1.6091 12.9515 1.47689 12.7834C1.07918 12.2854 0.828354 12.0559 0.568939 11.9615C0.354448 11.8838 0.17933 11.7235 0.0821113 11.5156C-0.0151079 11.3078 -0.0264652 11.0696 0.0505375 10.8533C0.12754 10.6371 0.286596 10.4605 0.492713 10.3625C0.69883 10.2645 0.935126 10.253 1.14962 10.3307C1.79558 10.5645 2.23281 10.9672 2.82207 11.706C2.74133 11.6046 3.11413 12.0758 3.19402 12.1728C3.35723 12.3694 3.47749 12.4889 3.57197 12.5521C3.74721 12.6708 4.0762 12.7219 4.55981 12.6734C4.57957 12.3425 4.64056 12.0212 4.73333 11.725C2.18384 11.0963 0.740737 9.43861 0.740737 6.18565C0.740737 5.11173 1.05856 4.1452 1.64955 3.33456C1.46229 2.56029 1.49064 1.62407 1.90897 0.570064C1.95644 0.450837 2.02963 0.343752 2.12323 0.256572C2.21683 0.169391 2.32849 0.104299 2.45013 0.066012C2.51971 0.0452264 2.55922 0.0356997 2.6288 0.0253068C3.31857 -0.0812196 4.29267 0.172538 5.56226 0.974518C6.31886 0.79618 7.09337 0.706669 7.87037 0.707769C8.65377 0.707769 9.43202 0.79784 10.1759 0.974518C11.4446 0.166476 12.4204 -0.0872821 13.1154 0.0253068C13.1884 0.0365657 13.2502 0.0512889 13.3026 0.0686102C13.4219 0.108256 13.5311 0.17378 13.6225 0.260568C13.7139 0.347356 13.7853 0.453297 13.8318 0.57093C14.2501 1.62407 14.2784 2.56029 14.0912 3.33369C14.6848 4.14433 15 5.1048 15 6.18565C15 9.43947 13.562 11.0919 11.0126 11.7216C11.1199 12.081 11.1758 12.4828 11.1758 12.9167C11.1758 13.7008 11.1724 14.4849 11.1655 15.269C11.3584 15.3114 11.5309 15.4195 11.654 15.5752C11.7771 15.7308 11.8433 15.9245 11.8413 16.1236C11.8394 16.3226 11.7695 16.5149 11.6435 16.6681C11.5174 16.8214 11.3428 16.9261 11.1491 16.9647C10.1707 17.1622 9.44576 16.504 9.44576 15.644L9.44748 15.2577L9.45177 14.6471C9.45607 14.034 9.45779 13.4883 9.45779 12.9167C9.45779 12.3131 9.30059 11.919 9.09271 11.7389C8.52492 11.2452 8.81268 10.3055 9.55657 10.2215C12.1052 9.93313 13.282 8.93802 13.282 6.18565C13.282 5.35856 13.014 4.67523 12.4978 4.10362C12.389 3.98345 12.316 3.83482 12.2871 3.67476C12.2583 3.51469 12.2747 3.34967 12.3346 3.19858C12.4771 2.84003 12.5381 2.36976 12.417 1.80075L12.4084 1.80335C11.9867 1.92373 11.4549 2.18442 10.8124 2.62524C10.7088 2.69614 10.5911 2.74333 10.4675 2.76353C10.3439 2.78373 10.2174 2.77644 10.0969 2.74216C9.3718 2.53975 8.62272 2.43806 7.87037 2.43991C7.10587 2.43991 6.34824 2.54297 5.64386 2.74303C5.52379 2.77703 5.39782 2.78426 5.2747 2.76422C5.15157 2.74418 5.03426 2.69735 4.9309 2.62698C4.28494 2.18788 3.75064 1.92806 3.3263 1.80681C3.20261 2.37235 3.2636 2.8409 3.40533 3.19858C3.46529 3.34959 3.48187 3.51457 3.45316 3.67463C3.42444 3.83469 3.35161 3.98336 3.24298 4.10362C2.73016 4.67003 2.45872 5.36635 2.45872 6.18565C2.45872 8.93282 3.6364 9.934 6.17128 10.2215C6.91431 10.3055 7.20293 11.2409 6.63858 11.7354C6.47365 11.8809 6.27007 12.3694 6.27007 12.9167V15.6449C6.27007 16.4988 5.55281 17.1388 4.58644 16.9682C4.39039 16.9335 4.21238 16.8312 4.08283 16.6789C3.95328 16.5265 3.88024 16.3335 3.87618 16.1328C3.87212 15.9322 3.9373 15.7364 4.06059 15.5788C4.18387 15.4212 4.3576 15.3117 4.55208 15.269V14.4116C3.7704 14.4644 3.12444 14.3354 2.61592 13.9915Z" fill="#04475C"/>
</svg>
