<svg width="25" height="21" viewBox="0 0 25 21" fill="none"
    xmlns="http://www.w3.org/2000/svg">
    <path fill-rule="evenodd" clip-rule="evenodd" d="M5.20893 2.20012C4.56785 1.91141 3.81408 2.19701 3.52535 2.83803L0.874711 8.72257C0.585971 9.36359 0.871602 10.1173 1.51269 10.406L3.29448 11.2084C3.93556 11.4971 4.68933 11.2115 4.97806 10.5705L7.6287 4.68596C7.91743 4.04495 7.63181 3.29125 6.99073 3.00255L5.20893 2.20012ZM2.98112 9.52482C3.40604 9.71621 3.90564 9.52688 4.09703 9.10201C4.28841 8.67714 4.09909 8.17758 3.67417 7.98622C3.24926 7.79487 2.74965 7.98417 2.55827 8.40904C2.36689 8.83391 2.5562 9.33347 2.98112 9.52482Z" fill="currentColor"/>
    <path fill-rule="evenodd" clip-rule="evenodd" d="M24.1777 10.5665C24.8351 10.3174 25.1663 9.58254 24.9171 8.92511L22.6303 2.88988C22.3813 2.23245 21.6463 1.90141 20.9888 2.15049L19.1614 2.84277C18.5039 3.09185 18.1729 3.82672 18.4219 4.48415L20.7087 10.5194C20.9578 11.1769 21.6928 11.5078 22.3502 11.2587L24.1777 10.5665ZM20.5734 3.81156C20.1376 3.97665 19.9181 4.46373 20.0832 4.89948C20.2484 5.33524 20.7356 5.55465 21.1713 5.38956C21.6071 5.22447 21.8266 4.73739 21.6615 4.30163C21.4964 3.86588 21.0091 3.64647 20.5734 3.81156Z" fill="currentColor"/>
    <path fill-rule="evenodd" clip-rule="evenodd" d="M19.1059 4.20368L19.0966 4.20448L19.0674 4.20709L18.9527 4.21765C18.8526 4.22704 18.7072 4.24112 18.5274 4.25977C18.1674 4.29708 17.6707 4.35254 17.1229 4.4251C16.0097 4.57255 14.7464 4.78322 13.9759 5.04007C13.723 5.12439 13.3873 5.31434 12.9874 5.60598C12.5953 5.89193 12.1747 6.25098 11.7549 6.64085C10.9156 7.4204 10.1109 8.29405 9.59016 8.88214C9.40679 9.08921 9.43893 9.30755 9.54306 9.41955C9.87232 9.77374 10.307 10.1248 10.7957 10.2687C11.2432 10.4004 11.7994 10.3794 12.4774 9.87099L12.4952 9.85763L13.7614 9.03993C14.0279 8.86792 14.5209 8.66576 15.0216 8.94322C15.579 9.25203 16.4134 9.99765 17.0553 10.6027C17.3888 10.9171 17.6918 11.2143 17.9111 11.4328C18.0168 11.538 18.1033 11.6252 18.1649 11.6875C18.2442 11.6993 18.3833 11.693 18.6077 11.6172C18.9025 11.5177 19.239 11.3328 19.5726 11.1108C19.9014 10.8922 20.2017 10.6546 20.4217 10.4699C20.531 10.378 20.619 10.3004 20.679 10.2464C20.709 10.2195 20.7318 10.1985 20.7468 10.1846L20.7631 10.1694L20.7667 10.1661M17.3566 12.6814L17.4318 12.7587L17.5283 12.8069C18.033 13.0592 18.587 12.9677 19.0149 12.8232C19.4602 12.6729 19.9024 12.4205 20.2779 12.1706C20.6586 11.9174 20.9981 11.6483 21.2406 11.4445C21.3626 11.342 21.4616 11.2548 21.5308 11.1926C21.5654 11.1614 21.5926 11.1364 21.6116 11.1187L21.6339 11.098L21.6403 11.0921L21.6422 11.0902C21.6423 11.0902 21.6432 11.0892 21.2051 10.6275L21.6432 11.0892C21.8983 10.8473 21.9089 10.4445 21.6669 10.1895C21.425 9.93451 21.0217 9.92433 20.7667 10.1661M17.3566 12.6814L17.3337 12.658L17.2654 12.5885C17.206 12.5281 17.1195 12.4411 17.0127 12.3348C16.799 12.1219 16.5048 11.8332 16.1819 11.5289C15.5483 10.9317 14.8751 10.3427 14.4731 10.0967C14.4666 10.1003 14.4597 10.1045 14.4522 10.1093L13.2227 10.9032C12.2397 11.6328 11.2757 11.737 10.4362 11.4898C9.63251 11.2533 9.00966 10.7155 8.61061 10.2862C7.97866 9.60646 8.10369 8.64055 8.63701 8.03829C9.17001 7.43638 10.0057 6.5281 10.8885 5.70819C11.3298 5.29834 11.7906 4.90328 12.2371 4.57755C12.676 4.2575 13.1362 3.97818 13.5733 3.83247C14.4728 3.53258 15.848 3.30989 16.9557 3.16317C17.5184 3.08864 18.0276 3.03181 18.3961 2.9936C18.5805 2.97448 18.73 2.96 18.8336 2.95026L18.9535 2.93924L18.9959 2.93549C19.3462 2.90539 19.6555 3.16482 19.6856 3.51504C19.7157 3.86526 19.4562 4.17356 19.1059 4.20368" fill="currentColor"/>
    <path fill-rule="evenodd" clip-rule="evenodd" d="M6.91806 5.39332L6.41663 4.22326L6.46639 4.202L6.60616 4.14257C6.72668 4.09145 6.89936 4.0185 7.10844 3.93098C7.52636 3.75605 8.09085 3.52249 8.67552 3.28864C9.25889 3.05532 9.86818 2.81938 10.3739 2.64091C10.6261 2.55192 10.8599 2.47459 11.0555 2.4187C11.2243 2.37046 11.4417 2.3144 11.621 2.3144C11.7838 2.3144 11.9555 2.35168 12.0958 2.38911C12.2474 2.42954 12.4141 2.48463 12.5835 2.5462C12.9228 2.66958 13.3057 2.83108 13.6598 2.9884C14.0155 3.1465 14.3503 3.30409 14.5957 3.42189C14.7187 3.48088 14.8195 3.5301 14.8901 3.56469L14.9718 3.60504L15.001 3.61955C15.3154 3.77675 15.4436 4.1594 15.2864 4.4738C15.1292 4.7882 14.7469 4.91564 14.4324 4.75846L14.4063 4.74548L14.3288 4.70722C14.2613 4.6741 14.1639 4.62658 14.0449 4.56948C13.8066 4.45509 13.4836 4.30311 13.1426 4.15165C12.8001 3.9994 12.4477 3.85133 12.1484 3.74252C11.9985 3.68801 11.8701 3.64635 11.7678 3.61907C11.684 3.59674 11.6396 3.5901 11.6253 3.58815C11.6235 3.5886 11.62 3.58931 11.6146 3.5904C11.5898 3.59539 11.5249 3.60848 11.4052 3.64267C11.2452 3.68838 11.0388 3.75615 10.7976 3.84129C10.3164 4.0111 9.72599 4.23951 9.14833 4.47055C8.572 4.70105 8.01417 4.93185 7.60002 5.1052C7.39307 5.19182 7.22229 5.26397 7.10336 5.31442L6.96587 5.37289L6.91806 5.39332ZM6.08223 5.05903C5.94375 4.73594 6.09351 4.36173 6.41663 4.22326L6.91806 5.39332C6.59494 5.53178 6.22071 5.38213 6.08223 5.05903Z" fill="currentColor"/>
    <path fill-rule="evenodd" clip-rule="evenodd" d="M3.72862 9.94384C3.97014 9.68838 4.37302 9.67708 4.62847 9.91863L4.19117 10.3811L3.75387 10.8436C3.49841 10.6021 3.48711 10.1992 3.72862 9.94384ZM9.40839 14.1341L12.7869 15.401C13.4881 15.6638 14.2782 15.4927 14.8078 14.9633L17.3636 12.4076C17.6122 12.159 18.0153 12.159 18.2638 12.4076C18.5124 12.6561 18.5124 13.0591 18.2638 13.3077L15.708 15.8634C14.8253 16.7458 13.5085 17.031 12.3399 16.5928L8.89004 15.2993L8.86016 15.2844C8.70125 15.2049 8.5068 15.0653 8.31914 14.9211C8.11884 14.767 7.8831 14.5737 7.62884 14.3583C7.11967 13.9268 6.51883 13.3917 5.94659 12.8726C5.37356 12.3529 4.82556 11.8457 4.42108 11.4688C4.21875 11.2803 4.05215 11.1241 3.93605 11.0152L3.80157 10.8886L3.75387 10.8436L4.19117 10.3811L4.62847 9.91863L4.80776 10.0874C4.92278 10.1955 5.08812 10.3504 5.28901 10.5375C5.69095 10.912 6.23451 11.4151 6.80198 11.9299C7.37025 12.4453 7.95887 12.9693 8.45195 13.3872C8.69881 13.5963 8.91739 13.7753 9.09506 13.9119C9.25716 14.0365 9.35897 14.1051 9.40839 14.1341Z" fill="currentColor"/>
    <path fill-rule="evenodd" clip-rule="evenodd" d="M4.7044 16.3757C5.15517 15.8363 5.95801 15.7642 6.49761 16.215L7.66908 17.1935C7.85154 17.346 8.07302 17.4443 8.30845 17.4772L9.82013 17.6893C10.5164 17.7869 11.0017 18.4304 10.904 19.1267C10.8064 19.8229 10.1627 20.3081 9.46645 20.2105L7.95477 19.9984C7.24848 19.8994 6.58403 19.6046 6.0367 19.1473L4.86521 18.1688C4.32563 17.7181 4.25362 16.9153 4.7044 16.3757Z" fill="currentColor"/>
    <path d="M6.20612 4.75755L9.30216 3.51927H12.3982L18.4329 4.18965L20.9097 10.3811L18.4329 12.2385L14.0985 15.9535L9.30216 14.8736L6.66792 12.8576L4.19117 10.3811L6.20612 4.75755Z" fill="currentColor"/>
    <path fill-rule="evenodd" clip-rule="evenodd" d="M4.55029 0.132544C3.90922 -0.156161 3.15545 0.129438 2.86671 0.770445L0.112616 6.88469C-0.176122 7.52569 0.109508 8.27939 0.750588 8.5681L2.64725 9.42225C3.28832 9.71095 4.04208 9.42537 4.33083 8.78435L7.08492 2.6701C7.37367 2.0291 7.08803 1.27541 6.44695 0.986693L4.55029 0.132544ZM2.29262 7.67703C2.72944 7.87376 3.24302 7.67916 3.43976 7.2424C3.63649 6.80562 3.44188 6.29209 3.00507 6.09537C2.56825 5.89866 2.05466 6.09326 1.85792 6.53002C1.66119 6.96678 1.85581 7.48033 2.29262 7.67703Z" fill="black"/>
    <path fill-rule="evenodd" clip-rule="evenodd" d="M24.1152 8.73447C24.7726 8.48539 25.1037 7.75053 24.8546 7.09311L22.4786 0.822306C22.2295 0.164878 21.4945 -0.166165 20.837 0.082913L18.8919 0.819823C18.2343 1.0689 17.9032 1.80376 18.1523 2.46119L20.5284 8.73199C20.7775 9.38943 21.5125 9.72046 22.1699 9.47138L24.1152 8.73447ZM20.3767 1.80323C19.9287 1.97295 19.7031 2.47366 19.8729 2.9216C20.0426 3.36955 20.5433 3.59511 20.9913 3.4254C21.4393 3.25569 21.6649 2.75497 21.4952 2.30702C21.3255 1.85907 20.8246 1.63352 20.3767 1.80323Z" fill="black"/>
    <path fill-rule="evenodd" clip-rule="evenodd" d="M18.8673 2.18993C19.2176 2.15982 19.4772 1.85151 19.4471 1.50129C19.4169 1.15107 19.1077 0.891641 18.7574 0.921747L18.7139 0.925591L18.5907 0.93692C18.4841 0.946926 18.3305 0.961806 18.1411 0.981461C17.7623 1.02072 17.2391 1.07912 16.6608 1.15571C15.5221 1.30656 14.11 1.53531 13.187 1.84298C12.7381 1.99263 12.2643 2.28061 11.8114 2.6115C11.3507 2.94813 10.8752 3.35657 10.4199 3.78014C9.50904 4.62749 8.64811 5.56468 8.10379 6.1801C7.57066 6.78286 7.44695 7.7469 8.07376 8.42768C8.47999 8.86888 9.11793 9.42666 9.94249 9.675C10.8037 9.93443 11.7963 9.83323 12.8109 9.08011L14.0832 8.2584C14.0915 8.25307 14.0992 8.24851 14.106 8.24464C14.2878 8.35511 14.5421 8.54666 14.8439 8.79963C15.1759 9.07786 15.5352 9.4045 15.8692 9.7193C16.2027 10.0333 16.5068 10.3317 16.7278 10.5518C16.8382 10.6617 16.9276 10.7518 16.989 10.8142L17.0597 10.886L17.0778 10.9044L17.0834 10.9103L17.1586 10.9877L17.2551 11.0358C17.7675 11.292 18.3315 11.1996 18.7697 11.0517C19.2253 10.8978 19.6784 10.6393 20.0639 10.3828C20.4544 10.123 20.8029 9.84672 21.052 9.6375C21.1771 9.53234 21.2787 9.44279 21.3497 9.3789C21.3852 9.34694 21.4131 9.3213 21.4326 9.30326L21.4555 9.28203L21.4619 9.27594L21.4639 9.2741C21.4639 9.2741 21.3516 8.88094 20.9134 8.41924L20.5678 8.85184L20.2769 9.69219L17.0834 10.9103L17.7307 10.3287L17.3892 9.41556C17.2002 9.22999 16.9787 9.01554 16.7423 8.79285C16.3988 8.46924 16.0198 8.12424 15.6617 7.82408C15.3129 7.53169 14.9514 7.25402 14.65 7.08904C14.1488 6.81461 13.6575 7.01795 13.3926 7.18909L12.0834 8.03455L12.0655 8.04793C11.3594 8.57752 10.7781 8.59725 10.3097 8.45615C9.7993 8.30243 9.34811 7.93232 9.01035 7.5655C8.90493 7.45098 8.87437 7.23038 9.05744 7.02339C9.58959 6.42174 10.4196 5.51912 11.2871 4.71209C11.7209 4.30848 12.1563 3.93609 12.5625 3.63926C12.9767 3.3367 13.3256 3.13861 13.5897 3.05059C14.3836 2.78595 15.6838 2.5692 16.828 2.41764C17.3913 2.34302 17.9022 2.28599 18.2723 2.24761C18.4573 2.22844 18.6067 2.21397 18.7097 2.20431L18.8276 2.19345L18.8673 2.18993Z" fill="black"/>
    <path d="M17.8923 9.9174C17.8285 9.85273 17.7373 9.76095 17.6254 9.64948C17.5544 9.57877 17.4755 9.50029 17.3892 9.41556L17.7307 10.3287L17.0834 10.9103L20.2769 9.69219L20.5678 8.85184L20.9134 8.41924L20.5877 8.34973L20.5671 8.36892C20.5517 8.3832 20.5282 8.40483 20.4972 8.4326C20.4355 8.4882 20.3448 8.56808 20.2323 8.66267C20.0058 8.85292 19.6966 9.0975 19.358 9.32277C19.0143 9.55141 18.6669 9.74236 18.3618 9.84535C18.1247 9.92541 17.977 9.9314 17.8923 9.9174Z" fill="black"/>
    <path fill-rule="evenodd" clip-rule="evenodd" d="M6.33193 3.41297L5.83051 2.24293L5.88162 2.22108L6.02526 2.16C6.14915 2.10745 6.32662 2.03246 6.54153 1.94251C6.9711 1.76272 7.55129 1.52266 8.15222 1.28231C8.75183 1.04249 9.3779 0.800041 9.89741 0.616711C10.1565 0.525275 10.3965 0.445906 10.597 0.388611C10.7709 0.338941 10.9921 0.282078 11.1735 0.282078C11.3385 0.282078 11.5131 0.319897 11.657 0.358264C11.8122 0.399647 11.983 0.45609 12.1569 0.519292C12.5051 0.645912 12.8982 0.811739 13.2621 0.973404C13.6276 1.13583 13.9717 1.29776 14.2239 1.4188C14.3502 1.47941 14.4538 1.52999 14.5261 1.56553L14.6102 1.60698L14.6326 1.61811L14.6402 1.62187C14.9547 1.77908 15.0827 2.16173 14.9255 2.47613C14.7683 2.79054 14.386 2.91797 14.0715 2.76079L14.0652 2.75758L14.0447 2.74742L13.9648 2.70806C13.8955 2.674 13.7953 2.62512 13.6729 2.5664C13.4278 2.44875 13.0956 2.29245 12.745 2.13664C12.3927 1.98006 12.03 1.82767 11.7218 1.7156C11.5674 1.65947 11.4349 1.61646 11.329 1.58823C11.238 1.56398 11.191 1.55737 11.1773 1.55563C11.1759 1.55605 11.1723 1.55676 11.1664 1.55793C11.1412 1.56293 11.0733 1.57644 10.9468 1.61258C10.7818 1.6597 10.5693 1.72951 10.3211 1.81709C9.82614 1.99176 9.21892 2.22667 8.62503 2.46421C8.03245 2.70122 7.4589 2.93852 7.03312 3.11673C6.82035 3.20579 6.64476 3.27997 6.52246 3.33185L6.3811 3.39197L6.33193 3.41297ZM5.49609 3.0787C5.35761 2.7556 5.50737 2.38139 5.83051 2.24293L6.33193 3.41297C6.0088 3.55144 5.63458 3.40178 5.49609 3.0787Z" fill="black"/>
    <path fill-rule="evenodd" clip-rule="evenodd" d="M3.07345 8.11881C3.31496 7.86338 3.71784 7.85208 3.9733 8.09357L3.09869 9.01857C2.84324 8.77708 2.83193 8.37424 3.07345 8.11881ZM8.89159 12.4303L12.409 13.7492C13.1102 14.0122 13.9004 13.841 14.4299 13.3116L17.0898 10.6519C17.3383 10.4034 17.7414 10.4034 17.99 10.6519C18.2385 10.9005 18.2385 11.3035 17.99 11.552L15.33 14.2117C14.4475 15.0941 13.1307 15.3794 11.962 14.9412L8.37352 13.5956L8.34364 13.5807C8.18197 13.4998 7.98331 13.3573 7.79037 13.209C7.58477 13.0509 7.34267 12.8524 7.08139 12.6309C6.55821 12.1876 5.94073 11.6378 5.35253 11.1042C4.76352 10.5699 4.20025 10.0486 3.78448 9.66123C3.57651 9.46745 3.40526 9.30697 3.28593 9.19486L3.14771 9.06482L3.09869 9.01857L3.9733 8.09357L4.02096 8.13854L4.15764 8.26713C4.2759 8.37824 4.44588 8.53752 4.65241 8.72998C5.06564 9.11502 5.62447 9.63214 6.20791 10.1614C6.79214 10.6913 7.39741 11.2302 7.90452 11.6599C8.15838 11.8751 8.38332 12.0591 8.56629 12.1998C8.73399 12.3287 8.83983 12.4001 8.89159 12.4303Z" fill="black"/>
    <path fill-rule="evenodd" clip-rule="evenodd" d="M4.57889 15.1497C4.80428 14.88 5.20571 14.844 5.4755 15.0693L6.6954 16.0883C6.96907 16.3169 7.30128 16.4643 7.65444 16.5138L9.22859 16.7347C9.57673 16.7834 9.81937 17.1052 9.77053 17.4534C9.72171 17.8014 9.39989 18.044 9.05175 17.9953L7.47759 17.7744C6.88902 17.6919 6.33532 17.4462 5.8792 17.0653L4.6593 16.0463C4.38951 15.8208 4.35351 15.4195 4.57889 15.1497Z" fill="black"/>
</svg>
