<svg width="28" height="28" viewBox="0 0 28 28" fill="none" xmlns="http://www.w3.org/2000/svg">
<path d="M21.4375 0H6.5625C2.93813 0 0 2.93813 0 6.5625V21.4375C0 25.0619 2.93813 28 6.5625 28H21.4375C25.0619 28 28 25.0619 28 21.4375V6.5625C28 2.93813 25.0619 0 21.4375 0Z" fill="#F0DB4F"/>
<path d="M7.36144 23.3988L9.50409 22.1021C9.91753 22.835 10.2936 23.4551 11.1956 23.4551C12.0602 23.4551 12.6053 23.1169 12.6053 21.8014V12.8547H15.2367V21.8386C15.2367 24.5639 13.6391 25.8044 11.3083 25.8044C9.20342 25.8044 7.98159 24.7143 7.36133 23.3986M16.6659 23.1168L18.8083 21.8764C19.3723 22.7975 20.1054 23.4741 21.4021 23.4741C22.4925 23.4741 23.1877 22.9289 23.1877 22.1771C23.1877 21.275 22.4735 20.9554 21.2705 20.4293L20.6129 20.1472C18.7145 19.3391 17.4551 18.3241 17.4551 16.1815C17.4551 14.2079 18.9588 12.7042 21.3083 12.7042C22.9811 12.7042 24.184 13.287 25.0485 14.8094L22.9998 16.125C22.5486 15.3169 22.0601 14.9974 21.3083 14.9974C20.5376 14.9974 20.0489 15.4861 20.0489 16.125C20.0489 16.9144 20.5376 17.234 21.6653 17.7228L22.3231 18.0046C24.5597 18.9633 25.819 19.9405 25.819 22.1395C25.819 24.5079 23.9583 25.8046 21.4586 25.8046C19.0152 25.8046 17.4364 24.6393 16.6659 23.1168Z" fill="#323330"/>
</svg>
