<svg width="19" height="18" viewBox="0 0 19 18" fill="none" xmlns="http://www.w3.org/2000/svg">
<path d="M4.36198 2.58333C4.36174 3.06957 4.16835 3.53578 3.82436 3.87943C3.48037 4.22307 3.01396 4.416 2.52773 4.41575C2.0415 4.41551 1.57528 4.22212 1.23164 3.87813C0.887991 3.53414 0.69507 3.06773 0.695313 2.5815C0.695556 2.09527 0.888943 1.62905 1.23293 1.28541C1.57692 0.941763 2.04333 0.748842 2.52956 0.749085C3.01579 0.749328 3.48201 0.942715 3.82566 1.2867C4.1693 1.63069 4.36222 2.0971 4.36198 2.58333ZM4.41698 5.77333H0.750313V17.25H4.41698V5.77333ZM10.2103 5.77333H6.56198V17.25H10.1736V11.2275C10.1736 7.8725 14.5461 7.56084 14.5461 11.2275V17.25H18.167V9.98084C18.167 4.325 11.6953 4.53584 10.1736 7.31334L10.2103 5.77333Z" fill="#04475C"/>
</svg>
