<svg width="73" height="44" viewBox="0 0 73 44" fill="none" xmlns="http://www.w3.org/2000/svg">
<rect width="72.7969" height="43.8125" rx="15" fill="#F3F2EC"/>
<path d="M32.3906 32.7188H27.9219V16.7188C27.9219 16.4062 27.8594 16.1146 27.7344 15.8438C27.6198 15.5729 27.4583 15.3385 27.25 15.1406C27.0521 14.9323 26.8177 14.7708 26.5469 14.6562C26.276 14.5417 25.9844 14.4844 25.6719 14.4844C25.3594 14.4844 25.0677 14.5417 24.7969 14.6562C24.526 14.7708 24.2865 14.9323 24.0781 15.1406C23.8802 15.3385 23.724 15.5729 23.6094 15.8438C23.4948 16.1146 23.4375 16.4062 23.4375 16.7188V32.7188H18.9531V16.7188C18.9531 16.4062 18.8958 16.1146 18.7812 15.8438C18.6667 15.5729 18.5052 15.3385 18.2969 15.1406C18.099 14.9323 17.8646 14.7708 17.5938 14.6562C17.3229 14.5417 17.0312 14.4844 16.7188 14.4844C16.4062 14.4844 16.1146 14.5417 15.8438 14.6562C15.5729 14.7708 15.3333 14.9323 15.125 15.1406C14.9271 15.3385 14.7708 15.5729 14.6562 15.8438C14.5417 16.1146 14.4844 16.4062 14.4844 16.7188V32.7188H10V16.7188C10 15.7917 10.1719 14.9219 10.5156 14.1094C10.8698 13.2865 11.349 12.5729 11.9531 11.9688C12.5677 11.3542 13.2812 10.875 14.0938 10.5312C14.9167 10.1771 15.7917 10 16.7188 10C17.5521 10 18.3542 10.151 19.125 10.4531C19.8958 10.7448 20.5885 11.1719 21.2031 11.7344C21.8177 11.1719 22.5052 10.7448 23.2656 10.4531C24.0365 10.151 24.8385 10 25.6719 10C26.599 10 27.4688 10.1771 28.2812 10.5312C29.1042 10.875 29.8177 11.3542 30.4219 11.9688C31.0365 12.5729 31.5156 13.2865 31.8594 14.1094C32.2135 14.9219 32.3906 15.7917 32.3906 16.7188V32.7188Z" fill="#04475C"/>
<path d="M41.2031 31.125C41.2031 31.5 41.1354 31.8542 41 32.1875C40.8646 32.5104 40.6771 32.7917 40.4375 33.0312C40.1979 33.2708 39.9167 33.4583 39.5938 33.5938C39.2708 33.7396 38.9219 33.8125 38.5469 33.8125C38.1823 33.8125 37.8333 33.7396 37.5 33.5938C37.1771 33.4583 36.8906 33.2708 36.6406 33.0312C36.401 32.7917 36.2083 32.5104 36.0625 32.1875C35.9271 31.8542 35.8594 31.5 35.8594 31.125C35.8594 30.7604 35.9271 30.4167 36.0625 30.0938C36.2083 29.7708 36.401 29.4896 36.6406 29.25C36.8906 29.0104 37.1771 28.8229 37.5 28.6875C37.8333 28.5417 38.1823 28.4688 38.5469 28.4688C38.9219 28.4688 39.2708 28.5417 39.5938 28.6875C39.9167 28.8229 40.1979 29.0104 40.4375 29.25C40.6771 29.4896 40.8646 29.7708 41 30.0938C41.1354 30.4167 41.2031 30.7604 41.2031 31.125Z" fill="#04475C"/>
<path d="M62.7969 21.5156C62.7969 22.5469 62.6615 23.5417 62.3906 24.5C62.1302 25.4479 61.7552 26.3385 61.2656 27.1719C60.776 27.9948 60.1927 28.75 59.5156 29.4375C58.8385 30.1146 58.0833 30.6979 57.25 31.1875C56.4167 31.6771 55.5208 32.0573 54.5625 32.3281C53.6146 32.5885 52.625 32.7188 51.5938 32.7188H44.8438V10.3125H51.5938C52.625 10.3125 53.6146 10.4479 54.5625 10.7188C55.5208 10.9792 56.4167 11.3542 57.25 11.8438C58.0833 12.3333 58.8385 12.9219 59.5156 13.6094C60.1927 14.2865 60.776 15.0417 61.2656 15.875C61.7552 16.6979 62.1302 17.5885 62.3906 18.5469C62.6615 19.4948 62.7969 20.4844 62.7969 21.5156ZM58.3125 21.5156C58.3125 20.5885 58.1354 19.7188 57.7812 18.9062C57.4375 18.0938 56.9583 17.3854 56.3438 16.7812C55.7396 16.1667 55.026 15.6823 54.2031 15.3281C53.3906 14.974 52.5208 14.7969 51.5938 14.7969H49.3594V28.2344H51.5938C52.5208 28.2344 53.3906 28.0625 54.2031 27.7188C55.026 27.3646 55.7396 26.8854 56.3438 26.2812C56.9583 25.6667 57.4375 24.9531 57.7812 24.1406C58.1354 23.3177 58.3125 22.4427 58.3125 21.5156Z" fill="#098FB8"/>
</svg>
