<svg width="109" height="109" viewBox="0 0 109 109" fill="none"
    xmlns="http://www.w3.org/2000/svg">
    <rect width="109" height="109" rx="54.5" fill="currentColor"/>
    <path d="M92.5 83.0225C92.5 83.9732 92.3281 84.8712 91.9843 85.7163C91.6406 86.535 91.1646 87.248 90.5564 87.8555C89.9482 88.4629 89.2342 88.9383 88.4144 89.2816C87.5946 89.6513 86.7088 89.8362 85.7568 89.8362C84.8312 89.8362 83.9454 89.6513 83.0992 89.2816C82.2794 88.9383 81.5522 88.4629 80.9175 87.8555C80.3093 87.248 79.8201 86.535 79.4499 85.7163C79.1061 84.8712 78.9342 83.9732 78.9342 83.0225C78.9342 82.0981 79.1061 81.2266 79.4499 80.4079C79.8201 79.5892 80.3093 78.8762 80.9175 78.2687C81.5522 77.6613 82.2794 77.1859 83.0992 76.8426C83.9454 76.4729 84.8312 76.288 85.7568 76.288C86.7088 76.288 87.5946 76.4729 88.4144 76.8426C89.2342 77.1859 89.9482 77.6613 90.5564 78.2687C91.1646 78.8762 91.6406 79.5892 91.9843 80.4079C92.3281 81.2266 92.5 82.0981 92.5 83.0225Z" fill="#04475C"/>
    <path d="M89.7234 45.9036C89.7234 48.5182 89.3796 51.0403 88.6921 53.47C88.031 55.8733 87.079 58.1313 85.8361 60.2441C84.5933 62.3305 83.1124 64.2452 81.3935 65.9882C79.6747 67.7049 77.7575 69.1838 75.642 70.4251C73.5264 71.6663 71.2523 72.6303 68.8194 73.3169C66.413 73.9772 63.9008 74.3073 61.2829 74.3073H44.1472V17.5H61.2829C63.9008 17.5 66.413 17.8433 68.8194 18.53C71.2523 19.1902 73.5264 20.141 75.642 21.3822C77.7575 22.6235 79.6747 24.1156 81.3935 25.8587C83.1124 27.5753 84.5933 29.49 85.8361 31.6028C87.079 33.6892 88.031 35.9472 88.6921 38.3769C89.3796 40.7802 89.7234 43.2891 89.7234 45.9036ZM78.3392 45.9036C78.3392 43.5532 77.8897 41.348 76.9906 39.288C76.118 37.2281 74.9015 35.4322 73.3413 33.9004C71.8076 32.3423 69.9962 31.1142 67.9071 30.2163C65.8445 29.3183 63.6364 28.8694 61.2829 28.8694H55.6106V62.9379H61.2829C63.6364 62.9379 65.8445 62.5021 67.9071 61.6306C69.9962 60.7327 71.8076 59.5178 73.3413 57.9861C74.9015 56.4279 76.118 54.6188 76.9906 52.5589C77.8897 50.4725 78.3392 48.2541 78.3392 45.9036Z" fill="#098FB8"/>
    <path d="M73.3413 91.5H61.9969V50.9347C61.9969 50.1424 61.8382 49.4029 61.5209 48.7163C61.23 48.0296 60.8201 47.4354 60.2912 46.9336C59.7888 46.4054 59.1938 45.9961 58.5063 45.7056C57.8187 45.4151 57.0783 45.2698 56.285 45.2698C55.4916 45.2698 54.7512 45.4151 54.0637 45.7056C53.3761 45.9961 52.7679 46.4054 52.239 46.9336C51.7366 47.4354 51.3399 48.0296 51.0491 48.7163C50.7582 49.4029 50.6127 50.1424 50.6127 50.9347V91.5H39.2286V50.9347C39.2286 50.1424 39.0832 49.4029 38.7923 48.7163C38.5014 48.0296 38.0915 47.4354 37.5626 46.9336C37.0602 46.4054 36.4652 45.9961 35.7777 45.7056C35.0901 45.4151 34.3497 45.2698 33.5564 45.2698C32.763 45.2698 32.0226 45.4151 31.3351 45.7056C30.6475 45.9961 30.0393 46.4054 29.5104 46.9336C29.008 47.4354 28.6113 48.0296 28.3205 48.7163C28.0296 49.4029 27.8841 50.1424 27.8841 50.9347V91.5H16.5V50.9347C16.5 48.5842 16.9363 46.379 17.809 44.3191C18.7081 42.2327 19.9245 40.4236 21.4582 38.8919C23.0184 37.3337 24.8299 36.1188 26.8925 35.2473C28.9816 34.3494 31.2029 33.9004 33.5564 33.9004C35.6719 33.9004 37.7081 34.2834 39.6649 35.0493C41.6218 35.7887 43.3803 36.8715 44.9405 38.2976C46.5007 36.8715 48.246 35.7887 50.1764 35.0493C52.1333 34.2834 54.1695 33.9004 56.285 33.9004C58.6385 33.9004 60.8466 34.3494 62.9092 35.2473C64.9983 36.1188 66.8097 37.3337 68.3434 38.8919C69.9036 40.4236 71.12 42.2327 71.9927 44.3191C72.8918 46.379 73.3413 48.5842 73.3413 50.9347V91.5Z" fill="#04475C"/>
</svg>
