<svg width="30" height="30" viewBox="0 0 30 30" fill="none" xmlns="http://www.w3.org/2000/svg">
<g clip-path="url(#clip0_2719_1505)">
<path fill-rule="evenodd" clip-rule="evenodd" d="M20.6338 10.0341C21.0099 11.1223 21.2809 12.2332 21.3699 13.3847C21.4805 14.8132 21.4299 16.2316 21.1288 17.6367C21.1205 17.6754 21.1032 17.7117 21.0903 17.7492C20.9959 17.7494 20.8995 17.7377 20.8072 17.752C20.027 17.8746 19.2474 18.0016 18.4679 18.128C17.6621 18.2585 16.8552 18.3839 16.0508 18.5234C15.7658 18.5726 15.413 18.5137 15.298 18.908C15.2947 18.9187 15.2619 18.9206 15.2429 18.9267L15.2818 16.571L15.2422 10.8869L15.6177 10.8225C16.2317 10.7219 16.8458 10.62 17.4603 10.5223C18.1937 10.4058 18.9277 10.2926 19.6616 10.1789C19.9852 10.1285 20.3094 10.0823 20.6338 10.0341Z" fill="#439934"/>
<path fill-rule="evenodd" clip-rule="evenodd" d="M14.4677 25.7939C14.0716 25.4533 13.6616 25.1278 13.2819 24.7697C11.2389 22.8426 9.74453 20.5746 9.00859 17.8401C8.80585 17.0875 8.67062 16.3228 8.62726 15.5451C8.59679 15.0009 8.55273 14.4518 8.59117 13.9104C8.69359 12.4704 8.90171 11.0442 9.32406 9.65716L9.34726 9.62482C9.38828 9.67943 9.44734 9.72771 9.4682 9.78935C9.88038 11.0034 10.2899 12.2183 10.6968 13.4341C11.976 17.2544 13.2536 21.0757 14.5349 24.8951C14.56 24.9696 14.6249 25.0308 14.6716 25.098L14.4677 25.7939Z" fill="#45A538"/>
<path fill-rule="evenodd" clip-rule="evenodd" d="M20.6337 10.0341C20.3093 10.0823 19.9849 10.1285 19.6613 10.1784C18.9274 10.2921 18.1934 10.4053 17.46 10.5218C16.8455 10.6195 16.2314 10.7215 15.6174 10.822L15.2419 10.8865L15.2391 10.6416C15.2266 10.4402 15.2053 10.2391 15.203 10.0378C15.1868 8.75391 15.1767 7.47 15.1608 6.1861C15.1509 5.38242 15.1362 4.57899 15.1198 3.77555C15.1097 3.27633 15.0989 2.77688 15.0764 2.27836C15.0642 2.01047 15.0211 1.74399 15.0035 1.4761C14.9937 1.32211 15.0073 1.16696 15.0103 1.01227C15.2018 1.38328 15.3891 1.75711 15.5859 2.12531C15.897 2.7075 16.3924 3.13641 16.8384 3.60446C18.6016 5.45414 19.8534 7.60477 20.6337 10.0341Z" fill="#46A037"/>
<path fill-rule="evenodd" clip-rule="evenodd" d="M15.2432 18.9265C15.2622 18.9204 15.2952 18.9185 15.2983 18.9077C15.4134 18.5135 15.7661 18.5723 16.0511 18.5231C16.8555 18.3839 17.6624 18.2583 18.4682 18.1277C19.2477 18.0014 20.0273 17.8744 20.8075 17.7518C20.8998 17.7373 20.9962 17.7492 21.0906 17.749C20.9448 18.2693 20.83 18.8008 20.6451 19.3069C20.4351 19.8808 20.181 20.441 19.9113 20.9901C19.5077 21.8094 19.0078 22.5775 18.4223 23.2783C17.9725 23.8193 17.4712 24.3192 16.9687 24.813C16.6909 25.0861 16.3635 25.3085 16.0588 25.5539L15.9798 25.5L15.6953 25.2567L15.4009 24.6115C15.1999 23.8588 15.0902 23.0846 15.0742 22.3057L15.0796 22.1742L15.1197 21.6056C15.133 21.4115 15.1509 21.2177 15.1591 21.0232C15.1893 20.3243 15.2155 19.6254 15.2432 18.9265Z" fill="#409433"/>
<path fill-rule="evenodd" clip-rule="evenodd" d="M15.2419 18.9265C15.2142 19.6254 15.188 20.3243 15.1582 21.0234C15.15 21.218 15.1322 21.4118 15.1188 21.6058L14.9395 21.6736C14.5413 20.5012 14.1429 19.3413 13.7531 18.1783C13.1086 16.2544 12.4718 14.3273 11.8282 12.4029C11.3084 10.8496 10.7849 9.29744 10.2579 7.74655C10.2333 7.6739 10.1625 7.61718 10.1133 7.55296L11.2608 5.44312C11.3002 5.51155 11.3522 5.57554 11.377 5.64913C11.9085 7.21994 12.4372 8.79166 12.9633 10.3643C13.6467 12.4104 14.3259 14.4581 15.0089 16.5044C15.0361 16.5862 15.0811 16.6617 15.124 16.7534L15.281 16.5705L15.2419 18.9265Z" fill="#4FAA41"/>
<path fill-rule="evenodd" clip-rule="evenodd" d="M10.1145 7.55322C10.1637 7.61744 10.2343 7.67416 10.2591 7.74682C10.7862 9.2977 11.3096 10.8498 11.8295 12.4031C12.473 14.3276 13.1098 16.2546 13.7544 18.1786C14.1439 19.3413 14.5423 20.5015 14.9408 21.6738L15.1201 21.6061L15.08 22.1747L15.0437 22.3057C14.9813 22.9282 14.9288 23.5521 14.8529 24.1732C14.8147 24.4845 14.7336 24.7901 14.672 25.0983C14.6255 25.031 14.5604 24.9699 14.5353 24.8953C13.254 21.0757 11.9764 17.2547 10.6972 13.4344C10.2902 12.2186 9.88069 11.0037 9.46859 9.78963C9.44773 9.72799 9.38891 9.67971 9.34766 9.6251L10.1145 7.55322Z" fill="#4AA73C"/>
<path fill-rule="evenodd" clip-rule="evenodd" d="M15.282 16.5708L15.1249 16.7536C15.082 16.6619 15.037 16.5862 15.0098 16.5047C14.3271 14.4583 13.6477 12.4106 12.9642 10.3645C12.4382 8.79188 11.9094 7.22016 11.378 5.64935C11.3534 5.57576 11.3013 5.51154 11.2617 5.44333L12.6809 3.57654C12.7256 3.6363 12.7894 3.68951 12.8126 3.75677C13.2063 4.91021 13.5972 6.06474 13.9852 7.22037C14.3477 8.29943 14.7049 9.38013 15.0717 10.4578C15.0963 10.53 15.1819 10.5811 15.2391 10.642L15.2419 10.8869C15.2555 12.7813 15.2688 14.6759 15.282 16.5708Z" fill="#57AE47"/>
<path fill-rule="evenodd" clip-rule="evenodd" d="M15.2398 10.6416C15.1827 10.5806 15.0971 10.5295 15.0725 10.4573C14.7057 9.37968 14.3485 8.29898 13.9859 7.21992C13.598 6.06445 13.2071 4.90992 12.8134 3.75632C12.7902 3.68906 12.7264 3.63585 12.6816 3.57609C13.1431 3.12421 13.5903 2.65617 14.0703 2.22515C14.4971 1.84218 14.8402 1.43156 14.8559 0.826401C14.8566 0.801323 14.8698 0.776245 14.8899 0.705933L15.0116 1.01203C15.0085 1.16695 14.9947 1.32187 15.0048 1.47585C15.0223 1.74374 15.0655 2.01023 15.0777 2.27812C15.1002 2.77664 15.1109 3.27609 15.121 3.77531C15.1372 4.57874 15.152 5.38218 15.162 6.18585C15.1777 7.46976 15.188 8.75367 15.2042 10.0376C15.2061 10.2394 15.2272 10.4402 15.2398 10.6416Z" fill="#60B24F"/>
<path fill-rule="evenodd" clip-rule="evenodd" d="M14.6707 25.098C14.7323 24.7898 14.8134 24.484 14.8516 24.1729C14.9278 23.5521 14.9801 22.9279 15.0424 22.3054L15.0579 22.3031L15.0734 22.3057C15.0893 23.0846 15.199 23.8588 15.4001 24.6115C15.3588 24.6658 15.3005 24.7143 15.2787 24.7758C15.1083 25.2562 14.9477 25.7404 14.7764 26.2209C14.753 26.2865 14.6878 26.3376 14.6419 26.3953L14.4668 25.7939L14.6707 25.098Z" fill="#A9AA88"/>
<path fill-rule="evenodd" clip-rule="evenodd" d="M14.6426 26.3955C14.6885 26.3379 14.7539 26.2868 14.7771 26.2211C14.9484 25.7407 15.1092 25.2567 15.2794 24.776C15.3012 24.7146 15.3593 24.6661 15.4008 24.6117L15.6949 25.2572C15.6368 25.3397 15.5566 25.414 15.5243 25.5058L14.9609 27.1603C14.9377 27.2266 14.8584 27.2735 14.8055 27.3295L14.6426 26.3955Z" fill="#B6B598"/>
<path fill-rule="evenodd" clip-rule="evenodd" d="M14.8066 27.3293C14.8598 27.2735 14.9388 27.2264 14.962 27.1601L15.5255 25.5056C15.5576 25.414 15.638 25.3395 15.6961 25.257L15.9809 25.5C15.8433 25.6359 15.7669 25.793 15.8128 25.9915L15.7263 26.2746C15.687 26.3231 15.63 26.3653 15.6105 26.4209C15.4139 26.9841 15.2262 27.5503 15.0281 28.1135C15.003 28.185 14.9334 28.241 14.8842 28.3038C14.8586 27.979 14.8327 27.6541 14.8066 27.3293Z" fill="#C2C1A7"/>
<path fill-rule="evenodd" clip-rule="evenodd" d="M14.8843 28.3038C14.9332 28.2408 15.0028 28.1848 15.0282 28.1135C15.2262 27.5505 15.4139 26.9843 15.6106 26.4208C15.63 26.3655 15.6868 26.3231 15.7264 26.2746L15.6071 27.5742C15.5752 27.611 15.529 27.6431 15.5138 27.686C15.379 28.0643 15.252 28.4454 15.1168 28.8237C15.0889 28.9017 15.0354 28.9706 14.9937 29.0435C14.9567 28.995 14.8904 28.9481 14.8873 28.8975C14.8754 28.7004 14.8836 28.5019 14.8843 28.3038Z" fill="#CECDB7"/>
<path fill-rule="evenodd" clip-rule="evenodd" d="M14.9922 29.0435C15.0339 28.9704 15.0873 28.9015 15.1152 28.8237C15.2507 28.4456 15.3775 28.0645 15.5123 27.686C15.5275 27.6431 15.5739 27.6113 15.6055 27.5742L15.6084 28.4273L15.3229 29.1595L14.9922 29.0435Z" fill="#DBDAC7"/>
<path fill-rule="evenodd" clip-rule="evenodd" d="M15.3242 29.1597L15.6097 28.4276L15.6685 29.2938L15.3242 29.1597Z" fill="#EBE9DC"/>
<path fill-rule="evenodd" clip-rule="evenodd" d="M15.8122 25.9917C15.7663 25.7932 15.8425 25.6359 15.9803 25.5002L16.0593 25.5541L15.8122 25.9917Z" fill="#CECDB7"/>
<path fill-rule="evenodd" clip-rule="evenodd" d="M15.0739 22.3059L15.0584 22.3034L15.043 22.3057L15.0793 22.1747L15.0739 22.3059Z" fill="#4FAA41"/>
</g>
<defs>
<clipPath id="clip0_2719_1505">
<rect width="30" height="30" fill="white"/>
</clipPath>
</defs>
</svg>
