<svg width="28" height="32" viewBox="0 0 28 32" fill="none" xmlns="http://www.w3.org/2000/svg">
<path d="M14 31.9406C13.5652 31.9406 13.1595 31.8232 12.7827 31.6178L8.92752 29.2997C8.34783 28.9769 8.63767 28.8595 8.81158 28.8008C9.59416 28.5367 9.73908 28.4781 10.5506 28.0085C10.6377 27.9498 10.7536 27.9791 10.8405 28.0378L13.7971 29.8278C13.913 29.8865 14.058 29.8865 14.1449 29.8278L25.7102 23.0495C25.8262 22.9908 25.8841 22.8734 25.8841 22.7267V9.19911C25.8841 9.0524 25.8262 8.93503 25.7102 8.87635L14.1449 2.12722C14.029 2.06854 13.8841 2.06854 13.7971 2.12722L2.2318 8.87646C2.11586 8.93514 2.05789 9.08185 2.05789 9.19922V22.7267C2.05789 22.8441 2.11586 22.9908 2.2318 23.0495L5.39131 24.898C7.1015 25.7783 8.17381 24.7513 8.17381 23.7243V10.3728C8.17381 10.1968 8.31884 10.0207 8.52173 10.0207H10C10.174 10.0207 10.3479 10.1674 10.3479 10.3728V23.7242C10.3479 26.0424 9.10142 27.3922 6.92748 27.3922C6.26084 27.3922 5.73913 27.3922 4.26092 26.6586L1.21734 24.898C0.46375 24.4578 0 23.6362 0 22.7559V9.22857C0 8.34829 0.46375 7.5267 1.21734 7.08645L12.7827 0.308097C13.5073 -0.102699 14.4927 -0.102699 15.2173 0.308097L26.7827 7.08645C27.5362 7.52659 28 8.34818 28 9.22857V22.756C28 23.6363 27.5362 24.4579 26.7827 24.898L15.2173 31.6766C14.8405 31.8527 14.4058 31.9407 14 31.9407M17.5652 22.6387C12.4927 22.6387 11.4493 20.2913 11.4493 18.2959C11.4493 18.1198 11.5942 17.9438 11.7971 17.9438H13.3043C13.4782 17.9438 13.6232 18.0611 13.6232 18.2372C13.8551 19.7923 14.5217 20.5554 17.5942 20.5554C20.029 20.5554 21.0725 19.9978 21.0725 18.6774C21.0725 17.9144 20.7827 17.3569 16.9855 16.9753C13.8261 16.6526 11.855 15.9483 11.855 13.3955C11.855 11.0186 13.826 9.61013 17.1304 9.61013C20.8405 9.61013 22.6667 10.9012 22.8985 13.7182C22.8985 13.8063 22.8695 13.8943 22.8116 13.9823C22.7536 14.041 22.6667 14.0997 22.5797 14.0997H21.0725C20.9275 14.0997 20.7827 13.9823 20.7536 13.8356C20.4058 12.2217 19.5073 11.6936 17.1304 11.6936C14.4639 11.6936 14.1449 12.6325 14.1449 13.3367C14.1449 14.1878 14.5217 14.4518 18.1159 14.9212C21.6812 15.3907 23.3623 16.0657 23.3623 18.5893C23.3333 21.1715 21.2464 22.6387 17.5652 22.6387Z" fill="#539E43"/>
</svg>
