<svg width="28" height="28" viewBox="0 0 28 28" fill="none" xmlns="http://www.w3.org/2000/svg">
<g clip-path="url(#clip0_2719_1500)">
<path d="M20.521 20.1495C20.6927 18.7204 20.6413 18.5106 21.7057 18.7423L21.9759 18.7659C22.7944 18.8031 23.8652 18.6342 24.4943 18.342C25.8486 17.7135 26.6514 16.6646 25.3164 16.94C22.2705 17.5685 22.0612 16.5371 22.0612 16.5371C25.2775 11.765 26.6219 5.7072 25.4612 4.22429C22.2959 0.179823 16.8169 2.09235 16.7252 2.14179L16.6959 2.14726C16.0941 2.02235 15.4206 1.94776 14.6639 1.93551C13.2856 1.91276 12.2398 2.29688 11.4463 2.89845C11.4463 2.89845 1.67194 -1.12852 2.12672 7.96273C2.22341 9.8967 4.89872 22.5967 8.08984 18.7607C9.25622 17.358 10.3832 16.172 10.3832 16.172C10.9428 16.5436 11.613 16.7335 12.3157 16.6653L12.3701 16.6189C12.3531 16.793 12.3605 16.9634 12.3918 17.1651C11.5699 18.0836 11.8114 18.2449 10.168 18.583C8.50503 18.9256 9.48197 19.5357 10.1196 19.6952C10.8929 19.8885 12.6816 20.1624 13.8904 18.4706L13.8423 18.6635C14.1648 18.9217 14.1431 20.5179 14.1886 21.6582C14.2343 22.7988 14.3107 23.863 14.5432 24.4906C14.7757 25.1182 15.05 26.7341 17.21 26.2712C19.0151 25.8854 20.3952 25.3286 20.521 20.1495Z" fill="black"/>
<path d="M16.5069 27.3998C15.5517 27.3998 14.9295 27.0303 14.5518 26.6735C13.9815 26.1354 13.7553 25.4422 13.6201 25.0281L13.5617 24.8553C13.2896 24.1207 13.1973 23.0631 13.1426 21.7011C13.1343 21.4966 13.1286 21.2859 13.1222 21.0626C13.1176 20.8992 13.1119 20.6942 13.1036 20.4798C12.7595 20.6439 12.3942 20.7594 12.0182 20.8228C11.3447 20.9379 10.6206 20.9007 9.86569 20.7119C9.33304 20.5787 8.7796 20.3026 8.46416 19.8763C7.54476 20.6815 6.66779 20.5724 6.19004 20.4129C5.34719 20.1318 4.59294 19.3419 3.88398 17.9986C3.37888 17.0415 2.89041 15.7946 2.43191 14.2923C1.63348 11.676 1.12619 8.92043 1.08113 8.01568C0.939382 5.18396 1.70173 3.15877 3.34651 1.99699C5.9411 0.164301 9.87226 1.24208 11.3055 1.73143C12.2684 1.15108 13.4014 0.868676 14.6815 0.88902C15.369 0.900176 16.0237 0.960551 16.6319 1.06905C17.2662 0.869551 18.5192 0.583208 19.9536 0.601145C22.5963 0.632645 24.7862 1.66252 26.2862 3.57943C27.3567 4.94705 26.8274 7.81902 26.4168 9.40933C25.8388 11.6463 24.8262 14.0254 23.5824 16.0965C23.9202 16.0989 24.4095 16.0585 25.1051 15.9147C26.4776 15.6315 26.879 16.3673 26.9879 16.6968C27.4243 18.0185 25.5273 19.0173 24.9356 19.292C24.1774 19.644 22.9413 19.8584 21.9289 19.812L21.8847 19.8091L21.6187 19.7857L21.5924 20.0076L21.5671 20.2243C21.499 22.8491 21.1241 24.5114 20.3526 25.6097C19.5439 26.7612 18.4199 27.0839 17.4299 27.2961C17.0921 27.3683 16.7852 27.3998 16.5069 27.3998ZM14.4966 17.8467C15.1133 18.3402 15.1673 19.2688 15.2157 21.0042C15.2218 21.2207 15.2275 21.4257 15.2351 21.6171C15.2583 22.1968 15.3128 23.5541 15.5254 24.1277C15.5554 24.2089 15.5823 24.2911 15.6107 24.3784C15.8476 25.1038 15.9664 25.4675 16.9908 25.2486C17.8507 25.0642 18.2928 24.8988 18.6389 24.4062C19.1418 23.69 19.4231 22.2493 19.4747 20.1241L20.521 20.1495L19.4819 20.0248L19.5126 19.7654C19.6121 18.9101 19.6839 18.2923 20.2554 17.8837C20.7142 17.556 21.2368 17.5877 21.653 17.6628C21.1956 17.3171 21.0692 16.9118 21.0355 16.7456L20.9482 16.3157L21.1934 15.9519C22.6059 13.8563 23.7705 11.2807 24.3892 8.88543C25.0249 6.42427 24.831 5.11724 24.6372 4.87005C22.0715 1.59165 17.6224 2.94527 17.1577 3.09883L17.0792 3.14127L16.6854 3.21455L16.4838 3.17277C15.9277 3.05727 15.3099 2.9934 14.6478 2.98268C13.6074 2.96518 12.7681 3.21105 12.0799 3.73321L11.6024 4.09524L11.0483 3.86708C9.86438 3.38299 6.38713 2.40977 4.55226 3.70936C3.53376 4.4308 3.06979 5.84436 3.17304 7.91089C3.20716 8.59318 3.67069 11.176 4.43544 13.6809C5.49223 17.1426 6.45254 18.2926 6.85351 18.4262C6.92351 18.4498 7.10507 18.3087 7.28576 18.0917C8.03916 17.1886 8.81928 16.3081 9.62507 15.4514L10.231 14.8138L10.9636 15.3005C11.2589 15.4967 11.5846 15.6081 11.9191 15.6291L13.6663 14.1389L13.4132 16.7219C13.4075 16.7799 13.4046 16.8589 13.4274 17.0054L13.5035 17.495L13.1732 17.8642L13.1351 17.9071L14.095 18.3501L14.4966 17.8467Z" fill="black"/>
<path d="M25.317 16.94C22.271 17.5684 22.0616 16.537 22.0616 16.537C25.2779 11.7648 26.6223 5.70672 25.4621 4.22425C22.2968 0.180002 16.8173 2.09253 16.7259 2.14219L16.6963 2.14744C16.0945 2.02253 15.421 1.94816 14.6639 1.93591C13.2856 1.91338 12.2402 2.29728 11.4468 2.89885C11.4468 2.89885 1.67214 -1.1279 2.1267 7.96313C2.22339 9.89731 4.8987 22.5973 8.08983 18.7613C9.2562 17.3587 10.383 16.1726 10.383 16.1726C10.9428 16.5443 11.6128 16.7341 12.3152 16.6659L12.3699 16.6195C12.3528 16.7936 12.3607 16.964 12.3918 17.1657C11.5697 18.0843 11.8112 18.2455 10.1677 18.5837C8.5048 18.9262 9.48174 19.5363 10.1196 19.6958C10.8927 19.8892 12.6816 20.163 13.8902 18.4712L13.8419 18.6642C14.1641 18.9223 14.3903 20.3424 14.3524 21.6298C14.3146 22.9171 14.289 23.8011 14.543 24.4914C14.7967 25.1818 15.0496 26.7349 17.21 26.2721C19.0151 25.8853 19.9505 24.8828 20.0808 23.2107C20.1731 22.0218 20.382 22.1976 20.3954 21.1347L20.5632 20.6316C20.7565 19.0201 20.5938 18.5003 21.7061 18.742L21.9763 18.7657C22.7949 18.8028 23.8661 18.634 24.495 18.3417C25.849 17.7137 26.6521 16.6646 25.317 16.94Z" fill="#336791"/>
<path d="M16.6159 26.7547C14.8151 26.7547 14.2446 25.3286 14.0112 24.7454C13.6695 23.8908 13.5958 20.5741 13.6719 17.8542C13.6731 17.8083 13.6833 17.7631 13.7019 17.7212C13.7206 17.6793 13.7474 17.6415 13.7807 17.61C13.8141 17.5784 13.8533 17.5538 13.8962 17.5376C13.9391 17.5213 13.9848 17.5136 14.0307 17.5151C14.0765 17.5163 14.1216 17.5266 14.1635 17.5453C14.2053 17.564 14.243 17.5908 14.2745 17.6241C14.306 17.6574 14.3306 17.6966 14.347 17.7394C14.3633 17.7822 14.371 17.8278 14.3697 17.8736C14.282 21.0107 14.4065 23.8536 14.6594 24.4862C15.054 25.4726 15.6525 26.3353 17.3445 25.9729C18.9508 25.6283 19.5524 25.0193 19.8203 23.466C20.026 22.274 20.4326 18.8829 20.4827 18.2138C20.4861 18.1681 20.4984 18.1234 20.519 18.0825C20.5396 18.0415 20.5682 18.0051 20.6029 17.9752C20.6377 17.9452 20.678 17.9225 20.7215 17.9082C20.7651 17.8939 20.811 17.8883 20.8568 17.8918C20.949 17.8988 21.0348 17.9421 21.0951 18.0122C21.1555 18.0824 21.1856 18.1736 21.1788 18.2659C21.1265 18.9626 20.7218 22.3471 20.5083 23.5848C20.192 25.4194 19.3741 26.2515 17.4909 26.6554C17.1708 26.7238 16.8801 26.7544 16.6159 26.7547ZM6.85174 19.7894C6.69433 19.7889 6.53804 19.7631 6.38886 19.7129C5.2192 19.3226 4.10511 17.4178 3.07742 14.0505C2.29517 11.4874 1.79949 8.81213 1.75595 7.9426C1.62711 5.36485 2.2908 3.54113 3.72908 2.52241C6.57436 0.506412 11.3608 2.42616 11.5632 2.50885C11.6489 2.54386 11.7172 2.61149 11.753 2.69686C11.7889 2.78223 11.7894 2.87835 11.7544 2.96407C11.7193 3.04979 11.6517 3.11809 11.5663 3.15394C11.481 3.1898 11.3849 3.19027 11.2991 3.15526C11.253 3.13644 6.66317 1.29763 4.13114 3.09291C2.90133 3.96485 2.33674 5.58491 2.45289 7.90782C2.48942 8.64041 2.95252 11.2514 3.74483 13.8467C4.66227 16.8527 5.70636 18.7495 6.60958 19.0507C6.75133 19.098 7.1827 19.2417 7.79936 18.5001C8.51846 17.6364 9.26455 16.7956 10.0365 15.9788C10.1011 15.9144 10.1884 15.8778 10.2796 15.8769C10.3708 15.876 10.4588 15.9108 10.5246 15.9739C10.5905 16.0371 10.629 16.1235 10.632 16.2146C10.635 16.3058 10.6021 16.3945 10.5405 16.4618C10.53 16.4728 9.48024 17.5702 8.33617 18.9466C7.79433 19.5983 7.27502 19.7894 6.85174 19.7894ZM22.0393 16.8484C21.9761 16.8483 21.914 16.831 21.8598 16.7984C21.8055 16.7657 21.7612 16.719 21.7315 16.6631C21.7018 16.6072 21.6879 16.5443 21.6911 16.4811C21.6944 16.4179 21.7148 16.3568 21.7501 16.3043C25.0014 11.4798 26.1426 5.65032 25.1653 4.40126C23.935 2.82932 22.1979 2.00835 20.0019 1.96088C18.3759 1.92588 17.0835 2.34107 16.8722 2.41347L16.8191 2.43513C16.6067 2.50185 16.4437 2.38547 16.3822 2.24941C16.3472 2.17146 16.3419 2.08337 16.3673 2.00177C16.3927 1.92017 16.4471 1.85069 16.5203 1.80644C16.5303 1.80054 16.5623 1.78697 16.6141 1.76794C16.9731 1.63647 18.2851 1.24272 19.9102 1.26132C22.3401 1.28713 24.3474 2.22404 25.7145 3.97119C26.3614 4.79785 26.3629 6.70229 25.7187 9.19647C25.062 11.7394 23.8263 14.4723 22.3287 16.6946C22.2618 16.7945 22.1515 16.8484 22.0393 16.8484ZM22.2056 19.0818C21.6504 19.0818 21.1527 19.0035 20.8548 18.825C20.5485 18.6414 20.4901 18.3921 20.4825 18.2597C20.3989 16.7919 21.2087 16.5364 21.6217 16.4198C21.5642 16.3328 21.4824 16.2304 21.3977 16.1247C21.1569 15.8237 20.827 15.4116 20.5728 14.7952C20.533 14.6989 20.4083 14.4751 20.264 14.2159C19.481 12.812 17.852 9.89057 18.8985 8.39454C19.3828 7.70219 20.3473 7.42963 21.7683 7.58166C21.3503 6.3081 19.3596 2.32422 14.6362 2.24679C13.2156 2.22316 12.0505 2.66001 11.1751 3.54397C9.21511 5.52344 9.28599 9.10504 9.28708 9.14091C9.28829 9.18673 9.28046 9.23234 9.26404 9.27513C9.24762 9.31793 9.22293 9.35706 9.19138 9.39032C9.15984 9.42357 9.12205 9.45028 9.08018 9.46893C9.03831 9.48758 8.99318 9.4978 8.94736 9.49901C8.90154 9.50021 8.85593 9.49238 8.81314 9.47596C8.77035 9.45954 8.73121 9.43486 8.69796 9.40331C8.6647 9.37176 8.63799 9.33398 8.61934 9.29211C8.60069 9.25024 8.59047 9.20511 8.58927 9.15929C8.58489 9.00026 8.51183 5.24169 10.6792 3.05266C11.6935 2.02826 13.0288 1.52251 14.6478 1.54897C17.6696 1.59863 19.6147 3.13491 20.7141 4.41482C21.9127 5.80979 22.5002 7.34848 22.5486 7.8621C22.5847 8.24404 22.3106 8.32038 22.2552 8.33176L22.1292 8.3346C20.7347 8.11126 19.84 8.26635 19.4701 8.79485C18.6741 9.93257 20.2152 12.696 20.8732 13.8762C21.0412 14.1772 21.1624 14.3948 21.2179 14.5292C21.434 15.0533 21.716 15.4055 21.9424 15.6885C22.1417 15.9375 22.3143 16.1534 22.376 16.4067C22.4046 16.457 22.8113 17.0586 25.2243 16.5605C25.8292 16.4358 26.1919 16.5423 26.3028 16.8777C26.5209 17.5372 25.2972 18.3065 24.6197 18.6211C24.0127 18.9033 23.0438 19.0818 22.2056 19.0818ZM21.1783 18.2022C21.2549 18.2794 21.6379 18.4126 22.4311 18.3785C23.1364 18.3483 23.8801 18.195 24.3264 17.9878C24.8971 17.7227 25.2781 17.4263 25.4755 17.2239L25.3661 17.2441C23.8232 17.5626 22.7319 17.5201 22.1225 17.1179C22.0815 17.0908 22.042 17.0616 22.0043 17.0301C21.9383 17.0562 21.8772 17.0732 21.8337 17.0855C21.4881 17.1824 21.1306 17.2828 21.1783 18.2022ZM11.2116 20.1524C10.8284 20.1524 10.425 20.1001 10.0131 19.997C9.58633 19.8903 8.86686 19.5689 8.8778 19.0411C8.89027 18.4489 9.75149 18.2713 10.0757 18.2046C11.2469 17.9633 11.3232 17.8666 11.6892 17.4018C11.7959 17.2664 11.9287 17.0977 12.1098 16.8956C12.3787 16.5946 12.6725 16.4421 12.9831 16.4421C13.1994 16.4421 13.3768 16.5154 13.4941 16.5642C13.8677 16.7191 14.1794 17.0936 14.3076 17.5414C14.4233 17.9454 14.368 18.3343 14.1523 18.6364C13.4442 19.628 12.4272 20.1524 11.2116 20.1524ZM9.63183 19.0711C9.73705 19.1524 9.94792 19.2612 10.1826 19.3198C10.5394 19.409 10.8855 19.4543 11.2119 19.4543C12.2063 19.4543 13.0047 19.0426 13.5846 18.2306C13.7056 18.0613 13.6693 17.8463 13.6369 17.7332C13.5691 17.4963 13.4007 17.2808 13.2272 17.2089C13.1331 17.1699 13.055 17.1402 12.9833 17.1402C12.9448 17.1402 12.8275 17.1402 12.6302 17.3609C12.4941 17.514 12.3632 17.6717 12.2378 17.8338C11.7819 18.4126 11.573 18.6091 10.2168 18.8884C9.8858 18.9562 9.71605 19.0254 9.63183 19.0711ZM12.3157 17.4611C12.2323 17.4609 12.1518 17.431 12.0886 17.3767C12.0255 17.3224 11.9838 17.2472 11.9711 17.1649C11.9624 17.107 11.9565 17.0486 11.9536 16.9901C11.0646 16.9735 10.2069 16.592 9.5557 15.9125C8.73233 15.0535 8.35761 13.8633 8.5278 12.6473C8.71264 11.3267 8.64352 10.1609 8.60633 9.53466C8.59605 9.36054 8.58861 9.23476 8.58905 9.14769C8.5897 9.03723 8.59189 8.74432 9.57102 8.24798C9.91927 8.07144 10.6175 7.76344 11.3803 7.68448C12.644 7.55388 13.477 8.11672 13.7264 9.26954C14.3995 12.3819 13.7798 13.7585 13.3272 14.7639C13.243 14.9511 13.1633 15.1279 13.0997 15.2992L13.0435 15.4501C12.8044 16.0913 12.5976 16.6451 12.6611 17.0588C12.668 17.1041 12.666 17.1503 12.6551 17.1948C12.6442 17.2394 12.6246 17.2813 12.5975 17.3182C12.5704 17.3552 12.5363 17.3864 12.4971 17.4102C12.4579 17.434 12.4144 17.4498 12.369 17.4567L12.3157 17.4611ZM9.28927 9.24438L9.30283 9.49354C9.34133 10.1441 9.41308 11.3547 9.21883 12.7442C9.07861 13.7471 9.38486 14.726 10.0595 15.4295C10.5926 15.9856 11.2941 16.2925 12.0151 16.2925H12.03C12.1107 15.9524 12.2448 15.5932 12.3892 15.2062L12.445 15.0561C12.5169 14.8628 12.6011 14.6755 12.6904 14.4773C13.1259 13.5096 13.6682 12.3049 13.0437 9.41719C12.9201 8.84516 12.6202 8.51419 12.1273 8.40504C11.115 8.18147 9.60624 8.94294 9.28927 9.24438ZM11.3958 9.09629C11.3783 9.21966 11.6218 9.5491 11.9394 9.59307C12.2564 9.63747 12.5276 9.37979 12.5449 9.25641C12.5622 9.13304 12.319 8.99697 12.0013 8.95279C11.6837 8.9086 11.4127 8.97291 11.3958 9.09629ZM12.0123 9.71448L11.9232 9.70835C11.7264 9.68101 11.5273 9.55697 11.391 9.37629C11.3431 9.31285 11.265 9.18991 11.2805 9.0801C11.3026 8.9191 11.4991 8.82263 11.8055 8.82263C11.874 8.82263 11.9453 8.82766 12.0171 8.83773C12.1846 8.86091 12.3402 8.90926 12.455 8.97335C12.6541 9.08447 12.6687 9.20851 12.6598 9.2726C12.6353 9.45044 12.3524 9.71448 12.0123 9.71448ZM11.5115 9.11685C11.5214 9.19297 11.71 9.4441 11.9554 9.47801L12.0125 9.48194C12.2391 9.48194 12.4084 9.30366 12.4283 9.24526C12.4073 9.20544 12.2616 9.10657 11.9854 9.06807C11.9259 9.05966 11.8659 9.05535 11.8058 9.05516C11.6281 9.05516 11.5339 9.09519 11.5115 9.11685ZM21.0501 8.84451C21.0674 8.96788 20.8242 9.29732 20.5068 9.34151C20.1896 9.38569 19.9181 9.12823 19.9006 9.00485C19.884 8.88148 20.1272 8.74519 20.4444 8.70122C20.7616 8.65682 21.0326 8.72135 21.0501 8.84451ZM20.4335 9.40451C20.1281 9.40451 19.8645 9.16694 19.8429 9.01272C19.8177 8.82766 20.1224 8.68701 20.4361 8.64347C20.5052 8.63385 20.5737 8.62904 20.6395 8.62904C20.9104 8.62904 21.0897 8.70844 21.1077 8.83663C21.1193 8.91954 21.0556 9.04751 20.946 9.16301C20.8736 9.23891 20.7216 9.37038 20.5144 9.39904L20.4335 9.40451ZM20.6398 8.74541C20.5791 8.74541 20.5167 8.74986 20.4525 8.75876C20.1373 8.80273 19.9492 8.92916 19.9584 8.99698C19.9689 9.07157 20.1701 9.28835 20.4337 9.28835L20.4987 9.28376C20.6708 9.25991 20.8001 9.14747 20.8618 9.08272C20.9587 8.98101 20.9972 8.88519 20.9926 8.8526C20.9865 8.80929 20.8701 8.74541 20.6398 8.74541ZM21.5071 15.9298C21.4439 15.9299 21.3818 15.9127 21.3276 15.8802C21.2734 15.8477 21.229 15.801 21.1992 15.7452C21.1695 15.6894 21.1555 15.6266 21.1587 15.5634C21.1619 15.5002 21.1822 15.4392 21.2175 15.3867C21.9608 14.2765 21.8247 13.1445 21.6933 12.0496C21.637 11.5833 21.5793 11.1009 21.5942 10.638C21.6095 10.1618 21.6701 9.76894 21.7285 9.38898C21.7978 8.93879 21.8635 8.51354 21.8363 8.00866C21.8339 7.9629 21.8404 7.9171 21.8557 7.87388C21.8709 7.83065 21.8945 7.79085 21.9251 7.75675C21.9557 7.72264 21.9927 7.6949 22.0341 7.67511C22.0754 7.65531 22.1202 7.64385 22.166 7.64138C22.2117 7.63891 22.2575 7.64548 22.3008 7.66071C22.344 7.67594 22.3838 7.69953 22.4179 7.73014C22.4868 7.79197 22.5283 7.87862 22.5333 7.97104C22.5643 8.5481 22.4902 9.02935 22.4184 9.49507C22.3631 9.85447 22.3058 10.2261 22.292 10.6604C22.2786 11.0703 22.3309 11.5056 22.3863 11.9663C22.5263 13.1305 22.6849 14.45 21.7976 15.7749C21.7656 15.8226 21.7224 15.8617 21.6717 15.8887C21.621 15.9157 21.5645 15.9298 21.5071 15.9298Z" fill="white"/>
</g>
<defs>
<clipPath id="clip0_2719_1500">
<rect width="28" height="28" fill="white"/>
</clipPath>
</defs>
</svg>
