<svg width="30" height="27" viewBox="0 0 30 27" fill="none" xmlns="http://www.w3.org/2000/svg">
<path d="M24.666 8.74229C24.3467 8.63163 24.0247 8.52908 23.7004 8.43475C23.7548 8.20975 23.805 7.98748 23.8495 7.76911C24.5805 4.1832 24.1027 1.29432 22.4704 0.343164C20.9053 -0.568678 18.3458 0.382124 15.7609 2.65545C15.5061 2.87989 15.257 3.11081 15.0138 3.34798C14.851 3.19028 14.6853 3.03563 14.5168 2.88412C11.8077 0.453414 9.09223 -0.571047 7.46168 0.382835C5.89805 1.29752 5.43504 4.01327 6.09316 7.41172C6.15864 7.7483 6.23257 8.08314 6.31488 8.41593C5.93051 8.52629 5.55961 8.64377 5.20465 8.76882C2.0284 9.8879 0 11.6416 0 13.4607C0 15.3394 2.17758 17.2238 5.48578 18.3665C5.75399 18.4587 6.02443 18.5442 6.29684 18.6229C6.20839 18.9813 6.12985 19.3422 6.06129 19.705C5.43387 23.0445 5.92383 25.696 7.48324 26.6049C9.09387 27.5435 11.7971 26.5789 14.4293 24.2537C14.6427 24.0646 14.8515 23.8702 15.0553 23.6707C15.3187 23.9275 15.5891 24.1768 15.8662 24.4184C18.416 26.6355 20.9341 27.5307 22.492 26.6194C24.1011 25.678 24.6241 22.8295 23.9452 19.364C23.8917 19.0924 23.8317 18.8223 23.7653 18.5537C23.9551 18.4969 24.1414 18.4384 24.3231 18.3775C27.7623 17.2261 30 15.3645 30 13.4607C30 11.635 27.9061 9.86943 24.666 8.74229ZM23.9201 17.1483C23.7559 17.2031 23.5879 17.2562 23.4162 17.3076C23.0365 16.0929 22.5241 14.8014 21.8971 13.4669C22.4954 12.1643 22.9881 10.8893 23.3571 9.68256C23.664 9.77232 23.9618 9.86694 24.2489 9.96677C27.0251 10.9326 28.7184 12.3604 28.7184 13.4607C28.7184 14.6326 26.8896 16.1539 23.9201 17.1483ZM22.688 19.6155C22.9882 21.1478 23.031 22.5334 22.8321 23.6166C22.6535 24.5899 22.2942 25.2387 21.8498 25.4986C20.9045 26.0517 18.8827 25.3328 16.7021 23.4367C16.4444 23.2121 16.1928 22.9803 15.9478 22.7416C16.7932 21.8073 17.638 20.7213 18.4625 19.5151C19.9129 19.385 21.283 19.1723 22.5255 18.8821C22.5869 19.1317 22.641 19.3762 22.688 19.6155ZM10.2277 25.4031C9.30398 25.7326 8.56828 25.7421 8.12355 25.483C7.17727 24.9315 6.78387 22.8024 7.32047 19.9466C7.38426 19.6091 7.4573 19.2735 7.53949 18.9401C8.76832 19.2149 10.1285 19.4124 11.5822 19.5315C12.4124 20.7118 13.2816 21.7967 14.1575 22.7466C13.9714 22.9287 13.7808 23.106 13.586 23.2786C12.422 24.3067 11.2556 25.0362 10.2277 25.4031ZM5.90039 17.1411C4.43754 16.6358 3.22945 15.9791 2.40141 15.2626C1.65727 14.6187 1.28168 13.9793 1.28168 13.4607C1.28168 12.3567 2.91023 10.9487 5.62652 9.99176C5.95617 9.8757 6.30117 9.76616 6.65918 9.66337C7.03465 10.8973 7.52707 12.1875 8.12133 13.4922C7.51934 14.8161 7.01988 16.1269 6.64078 17.3754C6.39213 17.3034 6.14525 17.2253 5.90039 17.1411ZM7.35094 7.16291C6.78715 4.25129 7.16156 2.05494 8.10387 1.50369C9.10746 0.916558 11.3268 1.75368 13.6659 3.85257C13.8185 3.98974 13.9685 4.1297 14.1161 4.27237C13.2444 5.2182 12.3832 6.29501 11.5604 7.46832C10.1495 7.60048 8.79891 7.81269 7.55719 8.09702C7.48067 7.78749 7.4119 7.47595 7.35094 7.16291ZM20.2916 10.3921C19.9983 9.8802 19.6941 9.3747 19.3793 8.87599C20.3365 8.99832 21.2536 9.16068 22.1148 9.35915C21.8563 10.1966 21.534 11.0721 21.1547 11.9697C20.8774 11.4381 20.5897 10.9121 20.2916 10.3921ZM15.0144 5.19807C15.6055 5.84524 16.1975 6.56773 16.7798 7.35168C15.5986 7.29529 14.4154 7.29506 13.2341 7.35097C13.817 6.57424 14.4141 5.8527 15.0144 5.19807ZM9.70336 10.4009C9.40902 10.9167 9.12664 11.4394 8.85644 11.9686C8.48332 11.0741 8.16398 10.1946 7.90324 9.34529C8.75918 9.15179 9.67195 8.99358 10.623 8.87351C10.3047 9.37526 9.99807 9.88461 9.70336 10.4009ZM10.6504 18.1398C9.66773 18.029 8.74125 17.879 7.88555 17.6907C8.15039 16.8262 8.47676 15.928 8.85797 15.0143C9.12923 15.5439 9.41279 16.0669 9.7084 16.583C10.0124 17.1135 10.3271 17.6331 10.6504 18.1398ZM15.0498 21.8144C14.4423 21.1522 13.8364 20.4196 13.2448 19.6316C13.8192 19.6543 14.4048 19.6659 15 19.6659C15.6115 19.6659 16.2159 19.6521 16.8109 19.6253C16.2267 20.4275 15.6369 21.1612 15.0498 21.8144ZM21.1668 14.9677C21.5678 15.8914 21.9057 16.7849 22.1741 17.6345C21.3043 17.8351 20.3652 17.9967 19.3757 18.1166C19.6928 17.6087 19.9998 17.0944 20.2966 16.5741C20.5985 16.0452 20.8886 15.5096 21.1668 14.9677ZM19.1865 15.927C18.7321 16.7247 18.2521 17.5073 17.7473 18.2735C16.833 18.339 15.9166 18.3715 15 18.371C14.0664 18.371 13.1583 18.3416 12.2838 18.2843C11.7659 17.5199 11.2767 16.7359 10.8175 15.9341C10.3603 15.1366 9.93342 14.3218 9.53754 13.4915C9.93243 12.6609 10.3581 11.8457 10.8137 11.0476L10.8136 11.0477C11.269 10.2493 11.7542 9.46873 12.2682 8.7076C13.1604 8.63939 14.0753 8.60386 14.9999 8.60386C15.9287 8.60386 16.8449 8.63974 17.7368 8.70843C18.2457 9.46842 18.7278 10.2463 19.1823 11.0407C19.6393 11.8372 20.0707 12.6484 20.4756 13.4731C20.0748 14.3063 19.6449 15.1247 19.1865 15.927ZM21.8303 1.46497C22.8348 2.05044 23.2255 4.4114 22.5943 7.50752C22.5539 7.7052 22.5089 7.90612 22.4596 8.11028C21.2148 7.81991 19.8633 7.60403 18.4482 7.46986C17.6239 6.28364 16.7698 5.20518 15.9123 4.27154C16.137 4.05265 16.3671 3.83943 16.6023 3.63207C18.8171 1.6844 20.8871 0.915374 21.8303 1.46497ZM15 10.7536C16.4795 10.7536 17.6789 11.9656 17.6789 13.4607C17.6789 14.9557 16.4795 16.1678 15 16.1678C13.5205 16.1678 12.3211 14.9557 12.3211 13.4607C12.3211 11.9656 13.5205 10.7536 15 10.7536Z" fill="#00D8FF"/>
</svg>
