<svg width="28" height="33" viewBox="0 0 28 33" fill="none" xmlns="http://www.w3.org/2000/svg">
<path d="M23.9552 10.3217V21.9804L14.0485 27.8417L13.959 27.9232V32.2806L14.0485 32.3652L28.0006 24.306V8.06059L27.8688 8.02814L23.9354 10.2272L23.9553 10.3221" fill="#01579B"/>
<path d="M4.10924 22.0759L14.0476 27.8416V32.3649L0 24.2739V8.09205L0.144154 8.07031L4.06622 10.3506L4.10924 10.4811V22.0762" fill="#0288D1"/>
<path d="M4.10924 10.4801L0 8.09106L14.0158 0L27.9995 8.05921L23.9541 10.3209L14.0158 4.65077L4.10924 10.4801Z" fill="#4FC3F7"/>
<path d="M13.8772 20.7414L13.7695 20.6316V16.2538L13.8772 16.1981L13.9033 16.0901L17.6564 13.9008L17.7711 13.9264V18.4374L13.8772 20.7414Z" fill="#283593"/>
<path d="M9.91797 18.5786V13.8947L10.0267 13.8895L13.8444 16.1111L13.877 16.1987V20.742L9.91797 18.5786Z" fill="#0277BD"/>
<path d="M13.8121 11.5914L9.91797 13.8955L13.877 16.1995L17.7712 13.9278L13.8121 11.5914Z" fill="#29B6F6"/>
<path d="M9.03145 23.5976L8.92383 23.4879V19.1099L9.03145 19.0543L9.05757 18.9464L12.8106 16.757L12.9254 16.7827V21.2934L9.0313 23.5975" fill="#01579B"/>
<path d="M5.07227 21.4343V16.7504L5.18095 16.7449L8.99871 18.9669L9.03116 19.0545V23.5978L5.07227 21.4343Z" fill="#0288D1"/>
<path d="M8.96656 14.4471L5.07227 16.751L9.03147 19.0551L12.9256 16.7835L8.96656 14.4471Z" fill="#4FC3F7"/>
<path d="M19.0684 23.7062L18.9609 23.5965V19.2185L19.0686 19.1629L19.0947 19.055L22.8478 16.8656L22.9626 16.8913V21.4019L19.0684 23.7062Z" fill="#01579B"/>
<path d="M15.1113 21.5428V16.8588L15.22 16.8535L19.0378 19.0755L19.0704 19.163V23.7062L15.1113 21.5428Z" fill="#0288D1"/>
<path d="M19.0055 14.5539L15.1113 16.8578L19.0704 19.1619L22.9645 16.8903L19.0055 14.5539Z" fill="#4FC3F7"/>
<path d="M14.2229 26.5625L14.1152 26.4527V22.0747L14.2229 22.0192L14.249 21.9111L18.0021 19.7219L18.1168 19.7475V24.2585L14.2227 26.5626" fill="#01579B"/>
<path d="M10.2638 24.3994V19.7154L10.3725 19.7101L14.1904 21.9318L14.2227 22.0194V26.5628L10.2638 24.3994Z" fill="#0288D1"/>
<path d="M14.158 17.4105L10.2637 19.7146L14.2229 22.0187L18.117 19.7471L14.158 17.4105Z" fill="#4FC3F7"/>
<path d="M13.8772 14.533L13.7695 14.4231V10.0453L13.8772 9.98972L13.9033 9.88179L17.6564 7.69257L17.7711 7.71823V12.2289L13.8772 14.533Z" fill="#01579B"/>
<path d="M9.91797 12.3697V7.68576L10.0267 7.68048L13.8444 9.90216L13.877 9.98971V14.5332L9.91797 12.3697Z" fill="#0288D1"/>
<path d="M13.8121 5.38086L9.91797 7.68496L13.877 9.98906L17.7712 7.71741L13.8121 5.38086Z" fill="#4FC3F7"/>
<path d="M9.03145 17.3894L8.92383 17.2797V12.9018L9.03145 12.8461L9.05757 12.7382L12.8106 10.5488L12.9254 10.5745V15.0855L9.03145 17.3894Z" fill="#01579B"/>
<path d="M5.07227 15.226V10.5422L5.18095 10.5367L8.99871 12.7587L9.03116 12.8463V17.3894L5.07227 15.226Z" fill="#0288D1"/>
<path d="M8.96671 8.23712L5.07227 10.5412L9.03147 12.8452L12.9256 10.5735L8.96671 8.23712Z" fill="#4FC3F7"/>
<path d="M19.0684 17.498L18.9609 17.3883V13.0104L19.0686 12.9547L19.0947 12.8468L22.8478 10.6574L22.9626 10.6831V15.1941L19.0684 17.498Z" fill="#01579B"/>
<path d="M15.1113 15.3333V10.6494L15.22 10.6442L19.0378 12.8658L19.0704 12.9534V17.4967L15.1113 15.3333Z" fill="#0288D1"/>
<path d="M19.0055 8.3457L15.1113 10.6498L19.0704 12.9537L22.9645 10.6821L19.0055 8.3457Z" fill="#4FC3F7"/>
<path d="M14.2229 20.3523L14.1152 20.2426V15.8646L14.2229 15.809L14.249 15.7011L18.0021 13.5117L18.1168 13.5374V18.0481L14.2227 20.3522" fill="#01579B"/>
<path d="M10.2638 18.189V13.5051L10.3725 13.4996L14.1904 15.7216L14.2227 15.8092V20.3525L10.2638 18.189Z" fill="#0288D1"/>
<path d="M14.158 11.2012L10.2637 13.5053L14.2229 15.8094L18.117 13.5377L14.158 11.2012Z" fill="#4FC3F7"/>
</svg>
