<svg width="28" height="28" viewBox="0 0 28 28" fill="none" xmlns="http://www.w3.org/2000/svg">
<path d="M21.4375 0H6.5625C2.93813 0 0 2.93813 0 6.5625V21.4375C0 25.0619 2.93813 28 6.5625 28H21.4375C25.0619 28 28 25.0619 28 21.4375V6.5625C28 2.93813 25.0619 0 21.4375 0Z" fill="#007ACC"/>
<path d="M6.19245 14.0929L6.18359 15.2396H9.82797V25.5951H12.4058V15.2396H16.0502V14.1151C16.0502 13.4929 16.037 12.9729 16.0191 12.9595C16.0058 12.9418 13.788 12.9329 11.0991 12.9373L6.2058 12.9507L6.19245 14.0929ZM22.5939 12.9181C23.3049 13.0959 23.8472 13.4115 24.345 13.927C24.6028 14.2026 24.9849 14.7048 25.0161 14.8248C25.025 14.8604 23.8072 15.6782 23.0695 16.1359C23.0428 16.1537 22.936 16.0381 22.816 15.8604C22.4561 15.3359 22.0783 15.1092 21.5005 15.0693C20.6516 15.0114 20.105 15.4559 20.1094 16.1981C20.1094 16.4159 20.1405 16.5447 20.2294 16.7226C20.416 17.1092 20.7627 17.3403 21.8517 17.8114C23.8561 18.6737 24.7138 19.2426 25.2472 20.0514C25.8428 20.9537 25.9761 22.3937 25.5716 23.4648C25.1272 24.6292 24.025 25.4203 22.4738 25.6826C21.9939 25.767 20.856 25.7537 20.3405 25.6604C19.2161 25.4603 18.1494 24.9048 17.4917 24.176C17.2339 23.8915 16.7316 23.1492 16.7628 23.0959C16.776 23.0782 16.8916 23.0071 17.0205 22.9315C17.1449 22.8604 17.6161 22.5892 18.0605 22.3315L18.865 21.8647L19.0338 22.1137C19.2694 22.4736 19.7849 22.967 20.0961 23.1314C20.9894 23.6026 22.2161 23.5359 22.8205 22.9937C23.0783 22.7581 23.185 22.5137 23.185 22.1537C23.185 21.8292 23.1449 21.687 22.976 21.4426C22.7583 21.1315 22.3139 20.8692 21.0516 20.3226C19.6072 19.7003 18.985 19.3137 18.4161 18.7003C18.0872 18.3448 17.776 17.7759 17.6472 17.3003C17.5405 16.9048 17.5139 15.9137 17.5983 15.5137C17.896 14.1182 18.9494 13.1448 20.4694 12.8559C20.9628 12.7626 22.1094 12.7981 22.5939 12.9181Z" fill="white"/>
</svg>
