<svg width="18" height="18" viewBox="0 0 18 18" fill="none" xmlns="http://www.w3.org/2000/svg">
<path d="M8.56627 16.4414C7.92316 15.9375 1.95121 10.2679 1.88445 10.2059C1.6207 9.9484 1.45463 9.68137 1.40904 9.43659C1.36183 9.18227 1.4416 8.95975 1.65326 8.75312C1.85026 8.56079 2.09122 8.45906 2.3501 8.45906C2.66595 8.45906 2.98995 8.6053 3.26022 8.87074L5.96778 11.4107C6.015 11.4552 6.07687 11.4775 6.13711 11.4775C6.2006 11.4775 6.26247 11.4536 6.30969 11.4075C6.40412 11.3153 6.40412 11.1659 6.31132 11.0737L1.98865 6.71541C1.55557 6.29261 1.35206 5.6457 1.86654 5.14343C2.06355 4.9511 2.30451 4.84937 2.56338 4.84937C2.87924 4.84937 3.20323 4.99561 3.4735 5.26105L7.89548 9.46997C7.94269 9.51447 8.00456 9.53831 8.06643 9.53831C8.1283 9.53831 8.1918 9.51447 8.23901 9.46838C8.33344 9.37619 8.33507 9.22678 8.24064 9.133L2.92971 3.81781C2.68386 3.5778 2.5357 3.2901 2.50965 3.01036C2.48523 2.72584 2.5878 2.46199 2.8076 2.24741C3.0046 2.05508 3.24556 1.95336 3.50443 1.95336C3.82029 1.95336 4.14429 2.09959 4.41455 2.36344L9.83132 7.51969C9.87853 7.56419 9.9404 7.58803 10.0023 7.58803C10.0641 7.58803 10.1276 7.56419 10.1749 7.5181C10.2693 7.42591 10.2709 7.2765 10.1765 7.18272L6.24293 3.23606C5.99546 2.99446 5.8473 2.70836 5.82288 2.42861C5.79846 2.14409 5.90103 1.88024 6.12083 1.66566C6.31783 1.47334 6.55879 1.37161 6.81766 1.37161C7.13352 1.37161 7.45751 1.51784 7.72778 1.78328C9.1703 3.16612 12.9361 6.78217 13.0631 6.91569C13.5467 7.24153 13.6444 6.74879 13.6688 6.42931C13.6965 6.05737 13.2601 4.75877 13.5141 3.59051C13.9407 2.0376 15.1699 2.29191 15.1976 2.30463C15.8716 2.61299 15.743 3.07394 15.5037 4.0006L15.4793 4.18339C15.2285 5.39456 16.9511 8.98359 17.0781 9.25221C17.7538 10.6954 18.532 13.6217 15.9547 16.1378C13.1299 18.8955 9.63268 17.4825 8.56627 16.4414Z" fill="url(#paint0_radial_2546_1130)"/>
<path d="M12.2074 17.9927C10.4751 17.9927 9.0016 17.1837 8.42037 16.6226C7.89774 16.2062 4.59916 13.0971 1.91276 10.5524C1.80368 10.4491 1.74018 10.3903 1.73367 10.3823C1.42921 10.0851 1.24035 9.77515 1.18662 9.48269C1.12475 9.15049 1.23058 8.85008 1.49759 8.58782C1.74181 8.34939 2.04138 8.22383 2.36701 8.22383C2.74962 8.22383 3.13385 8.39549 3.44971 8.70544L6.15402 11.2422L1.82973 6.8839C1.33152 6.39752 1.08079 5.59166 1.71087 4.97813C1.95509 4.73971 2.25467 4.61414 2.58029 4.61414C2.9629 4.61414 3.34714 4.7858 3.66299 5.09575L8.08172 9.30149L2.77241 3.98789C2.48912 3.71132 2.31491 3.37276 2.28397 3.03579C2.25304 2.67657 2.38003 2.34755 2.65193 2.08211C2.89615 1.84369 3.19572 1.71812 3.52135 1.71812C3.90233 1.71812 4.28656 1.88819 4.60405 2.19814L10.0192 7.3528L6.08564 3.40614C5.80072 3.12798 5.62651 2.78942 5.5972 2.45246C5.56627 2.09483 5.69326 1.76581 5.96516 1.50036C6.20938 1.26194 6.50895 1.13637 6.83457 1.13637C7.21718 1.13637 7.60142 1.30804 7.91728 1.61798L9.09115 2.74174C11.1833 4.74447 12.9319 6.42137 13.1191 6.60892C13.2103 6.68045 13.3292 6.70747 13.3796 6.68363C13.4122 6.66773 13.448 6.59462 13.4415 6.44044C13.4317 6.17023 13.3926 5.83485 13.3519 5.4804C13.2705 4.76832 13.1859 4.0308 13.2917 3.54442C13.5229 2.70041 13.9771 2.34278 14.3158 2.1886C14.7814 1.97879 15.2324 2.05191 15.3187 2.09165C16.1653 2.47948 15.9976 3.12798 15.7665 4.02762L15.7616 4.04987L15.7355 4.23584C15.5662 5.04965 16.4356 7.29875 17.305 9.13141L17.3181 9.15685C17.8993 10.3966 18.9462 13.5772 16.1458 16.3111C14.858 17.5651 13.4643 17.9927 12.2074 17.9927ZM2.36701 8.70067C2.17489 8.70067 1.99254 8.77855 1.84275 8.92478C1.68808 9.07578 1.63435 9.22201 1.66692 9.39686C1.70273 9.58918 1.84764 9.81807 2.07395 10.0406C2.07557 10.0422 2.1407 10.1042 2.25304 10.2091C6.0661 13.8219 8.36827 15.9693 8.73622 16.2586L8.75576 16.2761C9.65448 17.1535 12.9938 18.7112 15.799 15.9725C18.3828 13.45 17.4109 10.5047 16.8719 9.35394L16.8605 9.3301C16.3005 8.15071 15.0273 5.28966 15.2536 4.14842L15.291 3.91C15.5418 2.93725 15.5564 2.73379 15.1315 2.53352C15.0061 2.51127 14.1074 2.40477 13.7639 3.65569C13.6776 4.05464 13.7606 4.78421 13.8339 5.42795C13.8762 5.79194 13.9153 6.13685 13.925 6.42455C13.9413 6.87754 13.7215 7.0508 13.588 7.11438C13.3161 7.24312 12.9921 7.13345 12.7902 6.96814L12.7691 6.94907C12.6698 6.84417 10.3074 4.58235 8.74436 3.08507L7.56886 1.95813C7.16834 1.56553 6.65223 1.50036 6.30544 1.83892C6.13611 2.00423 6.05959 2.19814 6.0775 2.41272C6.09703 2.63684 6.22077 2.87049 6.42754 3.07235L10.3692 7.01901C10.5548 7.20339 10.5548 7.50539 10.366 7.68976C10.1853 7.8662 9.86614 7.86937 9.68053 7.69453L4.26051 2.5367C3.86 2.14569 3.34225 2.08052 2.99709 2.41908C2.82777 2.58438 2.75124 2.7783 2.76915 2.99288C2.79032 3.21699 2.91406 3.45223 3.1192 3.65092L8.43176 8.96929C8.619 9.15367 8.61737 9.45567 8.42851 9.64005C8.24778 9.81648 7.92867 9.81966 7.74307 9.64481L3.31946 5.4343C2.91894 5.04012 2.4012 4.97654 2.05604 5.31509C1.63435 5.72677 1.85903 6.23699 2.17815 6.55011L6.50407 10.9116C6.68967 11.096 6.68804 11.3964 6.49918 11.5792C6.31683 11.7572 6.00098 11.7588 5.81537 11.5856L3.1078 9.04558C2.87987 8.82147 2.61774 8.70067 2.36701 8.70067Z" fill="#EDA600"/>
<path d="M12.6708 6.75957C11.777 8.54136 11.8926 11.0352 13.2341 13.0364C13.3855 13.3066 13.6444 13.1747 13.5125 12.8965C11.8926 9.51253 13.5907 7.07428 13.5907 7.07428L12.6708 6.75957Z" fill="#EDA600"/>
<path d="M9.16956 0.0898678C9.66125 -0.0357004 10.1855 -0.0245741 10.6951 0.0914573C11.2015 0.210668 11.7078 0.461804 12.0839 0.871888C12.4518 1.27879 12.6782 1.77312 12.7547 2.29129C12.8263 2.80468 12.7596 3.33398 12.5105 3.77267C12.4812 3.27994 12.3932 2.82694 12.2451 2.40891C12.1686 2.20069 12.079 2.002 11.9699 1.81444C11.8625 1.62848 11.7355 1.4441 11.6003 1.2931C11.3252 0.983151 10.9523 0.741551 10.5339 0.553993C10.1139 0.360078 9.65636 0.217025 9.16956 0.0898678Z" fill="#B0BEC5"/>
<path d="M9.2926 1.59078C9.5645 1.4223 9.90478 1.38733 10.2255 1.44296C10.5495 1.49859 10.8589 1.65595 11.1031 1.87371C11.3457 2.09464 11.5182 2.3728 11.6257 2.66209C11.6778 2.80673 11.7039 2.95932 11.7283 3.10714C11.7364 3.25973 11.7364 3.41232 11.712 3.56491C11.5997 3.44887 11.5117 3.33284 11.4287 3.21999C11.3326 3.1135 11.2577 3.00064 11.1715 2.89733C11.0021 2.69229 10.8377 2.50632 10.6602 2.34101C10.4779 2.18048 10.2858 2.03901 10.0627 1.91662C9.84128 1.79106 9.59218 1.68615 9.2926 1.59078Z" fill="#90A4AE"/>
<path d="M0.00311183 11.6688C0.232677 12.1075 0.472011 12.5144 0.75042 12.8736C1.0272 13.2328 1.34468 13.538 1.71427 13.7367C1.89336 13.8336 2.10665 13.9179 2.31505 13.9815C2.52507 14.0466 2.74324 14.0911 2.96792 14.1213C3.41728 14.1754 3.88944 14.1658 4.38927 14.0911C4.00178 14.4202 3.48404 14.595 2.95653 14.6331C2.4225 14.6681 1.88034 14.5553 1.39516 14.2882C0.90672 14.0164 0.548533 13.5841 0.323852 13.1247C0.0991711 12.6622 -0.02131 12.1647 0.00311183 11.6688Z" fill="#B0BEC5"/>
<path d="M1.54004 11.4796C1.69797 11.7466 1.85427 11.9612 2.02522 12.1487C2.19455 12.3363 2.3769 12.4905 2.57553 12.6303C2.77742 12.7654 2.99884 12.8846 3.2398 13.0039C3.36028 13.0643 3.4889 13.1119 3.6159 13.1819C3.74778 13.2375 3.88128 13.2963 4.0213 13.3806C3.87314 13.4346 3.72173 13.4664 3.56705 13.4902C3.41401 13.4966 3.25608 13.5045 3.09978 13.4839C2.78718 13.4425 2.47458 13.3361 2.20106 13.1501C1.93242 12.9609 1.70937 12.6987 1.58726 12.4014C1.46352 12.1058 1.4277 11.7752 1.54004 11.4796Z" fill="#90A4AE"/>
<defs>
<radialGradient id="paint0_radial_2546_1130" cx="0" cy="0" r="1" gradientUnits="userSpaceOnUse" gradientTransform="translate(5.12067 4.43183) rotate(-44.2513) scale(16.1099 16.1044)">
<stop offset="0.3533" stop-color="#FFCA28"/>
<stop offset="0.8723" stop-color="#FFB300"/>
</radialGradient>
</defs>
</svg>
