<svg width="16" height="17" viewBox="0 0 16 17" fill="none"
    xmlns="http://www.w3.org/2000/svg">
    <path d="M4.20241 13.6952L4.78161 14.0336C5.75836 14.6032 6.86928 14.9023 8.00001 14.9C9.2658 14.9 10.5032 14.5246 11.5557 13.8214C12.6081 13.1182 13.4284 12.1186 13.9128 10.9492C14.3972 9.77972 14.524 8.4929 14.277 7.25142C14.0301 6.00994 13.4205 4.86957 12.5255 3.97451C11.6304 3.07946 10.4901 2.46992 9.24858 2.22297C8.0071 1.97603 6.72028 2.10277 5.55083 2.58717C4.38139 3.07157 3.38184 3.89187 2.6786 4.94435C1.97536 5.99682 1.60001 7.2342 1.60001 8.49999C1.60001 9.64879 1.90161 10.7504 2.46721 11.7192L2.80481 12.2984L2.28241 14.2192L4.20241 13.6952ZM0.0032107 16.5L1.08481 12.5256C0.372121 11.3039 -0.0023125 9.91439 1.07458e-05 8.49999C1.07458e-05 4.0816 3.58161 0.5 8.00001 0.5C12.4184 0.5 16 4.0816 16 8.49999C16 12.9184 12.4184 16.5 8.00001 16.5C6.58623 16.5023 5.19733 16.1281 3.97601 15.416L0.0032107 16.5ZM5.11281 4.7464C5.22001 4.7384 5.32801 4.7384 5.43521 4.7432C5.47841 4.7464 5.52161 4.7512 5.56481 4.756C5.69201 4.7704 5.83201 4.848 5.87921 4.9552C6.11761 5.496 6.34961 6.0408 6.57361 6.5872C6.62321 6.7088 6.59361 6.8648 6.49921 7.0168C6.43428 7.11958 6.36405 7.21891 6.28881 7.3144C6.19841 7.4304 6.00401 7.6432 6.00401 7.6432C6.00401 7.6432 5.92481 7.7376 5.95521 7.8552C5.96641 7.9 6.00321 7.9648 6.03681 8.0192L6.08401 8.0952C6.28881 8.4368 6.56401 8.78319 6.90001 9.10959C6.99601 9.20239 7.08961 9.29759 7.19041 9.38639C7.56481 9.71679 7.98881 9.98639 8.4464 10.1864L8.4504 10.188C8.5184 10.2176 8.5528 10.2336 8.652 10.276C8.7016 10.2968 8.7528 10.3152 8.8048 10.3288C8.85854 10.3425 8.91513 10.3399 8.9674 10.3214C9.01967 10.3029 9.06526 10.2693 9.0984 10.2248C9.6776 9.52319 9.7304 9.47759 9.7352 9.47759V9.47919C9.77544 9.44166 9.82325 9.41318 9.8754 9.39566C9.92756 9.37813 9.98287 9.37197 10.0376 9.37759C10.0856 9.38079 10.1344 9.38959 10.1792 9.40959C10.604 9.60399 11.2992 9.90719 11.2992 9.90719L11.7648 10.116C11.8432 10.1536 11.9144 10.2424 11.9168 10.328C11.92 10.3816 11.9248 10.468 11.9064 10.6264C11.8808 10.8336 11.8184 11.0824 11.756 11.2128C11.7133 11.3018 11.6566 11.3834 11.588 11.4544C11.5073 11.5392 11.4189 11.6163 11.324 11.6848C11.2912 11.7095 11.2578 11.7335 11.224 11.7568C11.1245 11.8199 11.0223 11.8786 10.9176 11.9328C10.7116 12.0422 10.4841 12.105 10.2512 12.1168C10.1032 12.1248 9.9552 12.136 9.8064 12.128C9.8 12.128 9.352 12.0584 9.352 12.0584C8.21461 11.7592 7.16272 11.1988 6.28001 10.4216C6.09921 10.2624 5.93201 10.0912 5.76081 9.92079C5.04881 9.21279 4.51121 8.4488 4.18481 7.7272C4.01774 7.37303 3.9275 6.98752 3.92001 6.596C3.91671 6.11028 4.07549 5.63733 4.37121 5.252C4.42961 5.1768 4.48481 5.0984 4.58001 5.008C4.68161 4.912 4.74561 4.8608 4.81521 4.8256C4.90775 4.77922 5.0087 4.75201 5.11201 4.7456L5.11281 4.7464Z" fill="currentColor"/>
</svg>
