<svg width="20" height="18" viewBox="0 0 20 18" fill="none" xmlns="http://www.w3.org/2000/svg">
<path d="M2 18C1.45 18 0.979333 17.8146 0.588 17.4439C0.196667 17.0732 0.000666667 16.6269 0 16.1053V5.68421C0 5.16316 0.196 4.71726 0.588 4.34653C0.98 3.97579 1.45067 3.7901 2 3.78947H6V1.89474C6 1.37368 6.196 0.927789 6.588 0.557053C6.98 0.186316 7.45067 0.000631579 8 0H12C12.55 0 13.021 0.185684 13.413 0.557053C13.805 0.928421 14.0007 1.37432 14 1.89474V3.78947H18C18.55 3.78947 19.021 3.97516 19.413 4.34653C19.805 4.71789 20.0007 5.16379 20 5.68421V16.1053C20 16.6263 19.8043 17.0725 19.413 17.4439C19.0217 17.8153 18.5507 18.0006 18 18H2ZM2 16.1053H18V5.68421H2V16.1053ZM8 3.78947H12V1.89474H8V3.78947Z" fill="black"/>
</svg>
